<?xml version="1.0" encoding="UTF-8" standalone="no"?>
<svg
   cursor="default"
   version="1.1"
   viewBox="0 0 256 256"
   id="svg24881"
   sodipodi:docname="feather_earring.svg"
   inkscape:version="1.1.1 (26b7af14f2, 2022-01-19)"
   xmlns:inkscape="http://www.inkscape.org/namespaces/inkscape"
   xmlns:sodipodi="http://sodipodi.sourceforge.net/DTD/sodipodi-0.dtd"
   xmlns:xlink="http://www.w3.org/1999/xlink"
   xmlns="http://www.w3.org/2000/svg"
   xmlns:svg="http://www.w3.org/2000/svg">
  <sodipodi:namedview
     id="namedview24883"
     pagecolor="#ffffff"
     bordercolor="#666666"
     borderopacity="1.0"
     inkscape:pageshadow="2"
     inkscape:pageopacity="0.0"
     inkscape:pagecheckerboard="0"
     showgrid="false"
     inkscape:zoom="1.8689597"
     inkscape:cx="77.315737"
     inkscape:cy="76.245623"
     inkscape:window-width="1853"
     inkscape:window-height="1024"
     inkscape:window-x="67"
     inkscape:window-y="28"
     inkscape:window-maximized="1"
     inkscape:current-layer="g3198"
     inkscape:snap-nodes="false" />
  <defs
     id="defs24827">
    <linearGradient
       inkscape:collect="always"
       id="innograd4">
      <stop
         style="stop-color:#ff8080;stop-opacity:1"
         offset="0"
         id="stop2080" />
      <stop
         style="stop-color:#ffb380;stop-opacity:1"
         offset="1"
         id="stop2082" />
    </linearGradient>
    <linearGradient
       id="innograd0"
       inkscape:swatch="gradient">
      <stop
         style="stop-color:#ff9955;stop-opacity:1;"
         offset="0"
         id="stop1294" />
      <stop
         style="stop-color:#ff9955;stop-opacity:0;"
         offset="1"
         id="stop1296" />
    </linearGradient>
    <linearGradient
       inkscape:collect="always"
       id="innograd3">
      <stop
         style="stop-color:#fff6d5;stop-opacity:1;"
         offset="0"
         id="stop42520" />
      <stop
         style="stop-color:#ffdd55;stop-opacity:1"
         offset="1"
         id="stop42522" />
    </linearGradient>
    <linearGradient
       id="linearGradient846-5"
       x1="227.7798"
       x2="103.59606"
       y1="68.408913"
       y2="210.15329"
       gradientTransform="matrix(1.1119322,-0.04588389,0.04403346,1.0671229,-32.302515,-2.0328809)"
       gradientUnits="userSpaceOnUse">
      <stop
         stop-color="#4d4d4d"
         offset="0"
         id="stop24820" />
      <stop
         stop-color="#808080"
         offset=".34443"
         id="stop24822" />
      <stop
         stop-color="#4d4d4d"
         offset="1"
         id="stop24824" />
    </linearGradient>
    <radialGradient
       inkscape:collect="always"
       xlink:href="#innograd3"
       id="radialGradient42526"
       cx="-183.13966"
       cy="-197.53802"
       fx="-183.13966"
       fy="-197.53802"
       r="18.908957"
       gradientTransform="matrix(0.62423463,-0.03911108,0.04301795,0.6865905,33.631787,141.82569)"
       gradientUnits="userSpaceOnUse"
       spreadMethod="reflect" />
    <linearGradient
       inkscape:collect="always"
       xlink:href="#innograd4"
       id="linearGradient2086"
       x1="64.59235"
       y1="110.26626"
       x2="224.94799"
       y2="110.26626"
       gradientUnits="userSpaceOnUse" />
    <radialGradient
       inkscape:collect="always"
       xlink:href="#innograd3"
       id="radialGradient3200"
       gradientUnits="userSpaceOnUse"
       gradientTransform="matrix(0.62423463,-0.03911108,0.04301795,0.6865905,285.53345,142.36604)"
       cx="-183.13966"
       cy="-197.53802"
       fx="-183.13966"
       fy="-197.53802"
       r="18.908957"
       spreadMethod="reflect" />
    <linearGradient
       inkscape:collect="always"
       xlink:href="#innograd4"
       id="linearGradient3202"
       gradientUnits="userSpaceOnUse"
       x1="64.59235"
       y1="110.26626"
       x2="224.94799"
       y2="110.26626" />
  </defs>
  <g
     inkscape:groupmode="layer"
     id="layer2"
     inkscape:label="earring">
    <g
       id="g24968"
       transform="matrix(0.59552466,0.50504166,0.50504166,-0.59552466,-53.846917,146.14728)"
       style="display:inline"
       inkscape:label="feather">
      <path
         d="m 80.024664,154.20168 1.000796,-26.13267 c 4.660683,-9.32529 16.159969,-21.09471 28.73324,-32.207825 l -1.61802,17.937285 11.35619,-26.263706 c 12.86155,-10.67488 25.32099,-19.876506 31.45306,-24.423253 l -4.40983,19.198398 8.56202,-21.02624 c 11.7041,-8.059649 47.05862,-19.544803 69.17472,-50.168882 3.18453,33.987782 -36.81717,81.336336 -43.54968,99.443013 l -31.77999,11.95499 31.20472,-8.76611 c -2.76237,9.90223 -6.63937,19.02907 -11.60146,27.60216 l -28.64656,10.75594 23.70175,-2.90787 c -6.3587,9.31314 -14.086,18.00921 -23.13943,26.40823 l -31.23754,9.21721 28.62465,-5.86633 c -21.68145,19.26496 -42.129999,31.86613 -68.06526,31.29737 0,0 -0.986898,-0.89246 -1.876888,-1.48637 -7.277512,-37.24847 0.654243,-64.68817 10.817701,-77.25781 0.270793,2.27946 1.167625,21.225 1.296403,22.69236 z"
         fill="url(#linearGradient846-5)"
         fill-rule="evenodd"
         stroke="#000000"
         stroke-width="0.9801"
         id="path24829"
         style="display:inline;fill:url(#linearGradient2086);fill-opacity:1" />
      <path
         d="m 70.121747,209.92683 52.197923,-84.61534 c 34.19954,-37.594743 87.52291,-74.638143 101.75535,-112.807829 2.50022,35.668828 -28.68319,64.952068 -43.11818,97.410679 l -32.01255,12.58969 30.98671,-8.53878 c -2.38927,9.52449 -6.02527,18.41823 -11.09863,27.09642 l -28.93231,11.03511 23.75074,-2.95598 c -6.05737,8.67967 -13.64293,17.26777 -22.95572,26.19039 l -31.47023,9.4831 28.0609,-5.33387 c -22.41191,19.69327 -42.965694,30.43754 -67.163727,30.44957 z"
         fill-opacity="0.178"
         fill-rule="evenodd"
         stroke-width="1.0902"
         id="path24831"
         style="display:none" />
      <g
         fill="#ff8080"
         stroke="#000000"
         stroke-width="0.2"
         id="g24877"
         style="display:inline;opacity:0.156351;fill:#000000;fill-opacity:1"
         transform="rotate(-5,127.56904,131.09839)">
        <path
           d="m 69.788,195.36 c 0,0 0.54168,-0.062 0.54168,-0.062 -0.40623,-3.5468 -0.99696,-8.8225 -1.3429,-14.244 -0.35784,-5.6058 -0.45656,-11.265 -0.04264,-17.059 0.41596,-5.822 1.3085,-11.206 2.5955,-16.473 1.2632,-5.1686 2.7965,-9.7432 4.0008,-13.015 -1.2056,3.2759 -2.8001,7.8186 -4.1659,12.974 -1.3904,5.2478 -2.4165,10.626 -2.9737,16.469 -0.55466,5.8159 -0.58827,11.509 -0.33274,17.154 0.24792,5.4764 0.7687,10.742 1.1783,14.317 0,0 0.54168,-0.062 0.54168,-0.062 z"
           id="path24833"
           style="fill:#000000;fill-opacity:1" />
        <path
           d="m 86.793,171.85 0.54498,-0.0161 c -0.15566,-5.2738 -0.66254,-16.917 0.02215,-28.188 0.7707,-12.687 2.8311,-22.775 5.0198,-30.482 -2.2219,7.8242 -4.4814,17.608 -5.5636,30.443 -0.95777,11.358 -0.72606,22.916 -0.56833,28.259 l 0.54498,-0.0161 z"
           id="path24835"
           style="fill:#000000;fill-opacity:1" />
        <path
           d="m 78.197,184.73 0.54441,-0.0297 c -0.37345,-6.8359 -0.81938,-14.214 -0.91922,-21.662 -0.08968,-6.6893 0.16532,-11.156 0.39676,-13.57 -0.23445,2.4465 -0.75524,6.8244 -0.94197,13.567 -0.1954,7.0558 0.02401,15.289 0.37561,21.726 l 0.54441,-0.0297 z"
           id="path24837"
           style="fill:#000000;fill-opacity:1" />
        <path
           d="m 99.514,154.61 0.54499,-0.0161 c -0.10108,-3.4244 -0.25385,-6.1127 -0.48952,-10.891 -0.20628,-4.1826 -0.39686,-8.6098 -0.284,-13.138 0.11598,-4.6536 0.54148,-9.1215 1.3666,-13.902 0.8131,-4.7102 1.9077,-9.0629 2.8564,-12.404 -0.95367,3.3583 -2.1041,7.6575 -3.024,12.373 -0.93059,4.77 -1.4871,9.2353 -1.7439,13.911 -0.25018,4.555 -0.19494,8.9934 -0.09066,13.194 0.04009,1.613 0.31191,10.65 0.31899,10.889 l 0.54498,-0.0161 z"
           id="path24839"
           style="fill:#000000;fill-opacity:1" />
        <path
           d="m 111.99,138.78 0.54499,-0.0161 c -0.0821,-2.7816 -0.2255,-6.4714 -0.33324,-9.7492 -0.11004,-3.3475 -0.1752,-6.1308 -0.12993,-8.7196 0.0454,-2.5966 0.20022,-4.8862 0.45423,-7.4457 0.23887,-2.4069 0.58505,-5.1918 0.85014,-7.1441 -0.27133,1.9983 -0.66948,4.6343 -1.0193,7.1238 -0.35638,2.5361 -0.64663,4.8465 -0.82976,7.442 -0.18441,2.6138 -0.25114,5.3878 -0.24531,8.7596 0.006,3.2165 0.0816,7.0024 0.16321,9.7653 l 0.54498,-0.0161 z"
           id="path24841"
           style="fill:#000000;fill-opacity:1" />
        <path
           d="m 122.18,123.88 0.43014,-0.0221 c -0.34001,-6.6084 -0.008,-14.196 2.1719,-22.944 1.7685,-7.097 4.655,-13.968 5.3118,-15.573 -0.59614,1.4559 -3.8002,8.5314 -5.7284,15.463 -2.4079,8.6558 -2.9556,16.492 -2.6157,23.098 l 0.43015,-0.0221 z"
           id="path24843"
           style="fill:#000000;fill-opacity:1" />
        <path
           d="m 133.97,114.3 0.4298,-0.0279 c -0.32713,-5.031 0.0489,-11.366 2.4145,-20.228 1.8619,-6.9754 5.1651,-15.669 5.894,-17.63 -0.60478,1.6272 -4.355,10.904 -6.3087,17.513 -2.5891,8.7592 -3.1892,15.329 -2.8594,20.401 l 0.4298,-0.0279 z"
           id="path24845"
           style="fill:#000000;fill-opacity:1" />
        <path
           d="m 146.24,104.96 c 0,0 0.43071,-7.1e-4 0.43071,-7.1e-4 -0.004,-2.1244 0.009,-4.7653 0.23198,-7.276 0.16972,-1.9075 0.44354,-3.5838 0.87149,-5.3361 0.42115,-1.7244 0.976,-3.4535 1.5991,-5.3148 0.82072,-2.4514 1.7446,-5.1653 2.3976,-7.1382 -0.77492,2.3412 -1.526,4.3546 -2.5578,7.081 -0.69074,1.8253 -1.342,3.5501 -1.8545,5.2588 -0.52514,1.7507 -0.89272,3.4386 -1.1432,5.3741 -0.32748,2.5311 -0.40963,5.227 -0.40615,7.3525 0,0 0.43072,-7.1e-4 0.43072,-7.1e-4 z"
           id="path24847"
           style="fill:#000000;fill-opacity:1" />
        <path
           d="m 161.12,92.517 c 0,0 0.42847,0.04401 0.42847,0.04401 0.27863,-2.7162 0.63482,-5.9827 1.1869,-9.0162 0.41862,-2.3003 0.90582,-4.2493 1.554,-6.3041 0.63014,-1.9974 1.4096,-4.0777 2.2498,-6.3368 1.3627,-3.6641 2.1041,-5.7248 3.2533,-9.0484 -1.0165,2.9397 -2.0894,5.745 -3.4118,8.9866 -0.89939,2.2046 -1.787,4.304 -2.4992,6.2601 -0.74369,2.0426 -1.3235,3.9909 -1.8243,6.3076 -0.65566,3.0334 -1.0878,6.3536 -1.3658,9.0633 l 0.42847,0.04391 z"
           id="path24849"
           style="fill:#000000;fill-opacity:1" />
        <path
           d="m 174.91,82.491 0.42897,0.03891 c 0.27486,-3.0342 0.83055,-6.6497 2.1704,-10.318 0.99646,-2.7276 2.2648,-5.0579 3.7798,-7.2882 1.4504,-2.1351 3.1209,-4.1554 4.5144,-5.9106 2.089,-2.6312 3.2375,-4.2832 4.3041,-6.1084 -1.037,1.7744 -2.3038,3.4898 -4.4355,6.0004 -1.441,1.6971 -3.2018,3.6748 -4.7351,5.7702 -1.6082,2.1979 -2.982,4.5296 -4.074,7.2906 -1.4645,3.7025 -2.1039,7.4135 -2.3821,10.485 l 0.42896,0.03881 z"
           id="path24851"
           style="fill:#000000;fill-opacity:1" />
        <path
           d="m 194.44,67.505 0.41416,0.11828 c 0.88131,-3.086 2.0695,-7.0258 3.6713,-10.378 1.2402,-2.5957 2.6768,-4.7812 4.683,-7.0511 1.9798,-2.2401 4.4528,-4.4885 7.3527,-7.0405 5.8842,-5.1785 6.1993,-5.3675 11.588,-10.227 -4.1239,3.7197 -7.0141,6.1374 -11.698,10.099 -2.9401,2.4863 -5.4985,4.6866 -7.5599,6.8791 -2.1027,2.2364 -3.6453,4.413 -4.9845,7.035 -1.7251,3.3773 -2.9947,7.3485 -3.8798,10.448 l 0.41416,0.11828 z"
           id="path24853"
           style="fill:#000000;fill-opacity:1" />
        <path
           d="m 70.229,194.7 -0.03528,0.54408 c 4.0922,0.26565 12.972,0.74967 21.374,0.0833 9.5434,-0.75682 16.691,-2.7404 22.423,-4.7416 -5.6534,1.9741 -13.04,3.7492 -22.457,4.1976 -8.2979,0.39514 -17.246,-0.3662 -21.269,-0.62736 l -0.03528,0.54407 z"
           id="path24855"
           style="fill:#000000;fill-opacity:1" />
        <path
           d="m 87.273,172.38 0.05812,0.54212 c 3.2812,-0.35205 6.7335,-0.63296 12.141,-0.90799 4.7099,-0.23953 11.009,-0.46376 16.545,-0.92025 6.0171,-0.49628 11.552,-1.2739 17.077,-2.5955 5.4842,-1.3118 9.8716,-2.9071 13.241,-4.2978 -3.3566,1.3852 -7.797,2.9283 -13.279,4.1318 -5.5323,1.2144 -11.077,1.8638 -17.077,2.2177 -5.5009,0.3245 -11.843,0.40182 -16.544,0.54482 -5.3166,0.1617 -9.0176,0.39945 -12.22,0.74307 l 0.05812,0.54211 z"
           id="path24857"
           style="fill:#000000;fill-opacity:1" />
        <path
           d="m 79.256,182.82 -0.05616,0.54233 c 4.6528,0.4815 12.281,0.94042 20.307,0.6616 8.1916,-0.28458 13.01,-1.1863 15.801,-1.8398 -2.6986,0.63178 -7.7509,1.3073 -15.811,1.2947 -8.1726,-0.0127 -15.391,-0.70488 -20.185,-1.2011 l -0.05616,0.54233 z"
           id="path24859"
           style="fill:#000000;fill-opacity:1" />
        <path
           d="m 98.458,155.97 0.0581,0.54211 c 3.3666,-0.36121 8.7826,-0.53959 13.992,-0.88458 4.5728,-0.30284 10.163,-0.6144 15.358,-1.1778 5.5286,-0.59947 10.651,-1.4718 15.886,-2.8527 5.1936,-1.3698 9.5167,-2.9873 12.88,-4.3754 -3.3482,1.3818 -7.728,2.9486 -12.922,4.2102 -5.2472,1.2745 -10.381,2.0181 -15.896,2.4751 -5.1703,0.4284 -10.789,0.59811 -15.357,0.80186 -5.0582,0.22558 -10.833,0.37307 -14.058,0.71902 l 0.0581,0.54211 z"
           id="path24861"
           style="fill:#000000;fill-opacity:1" />
        <path
           d="m 110.13,140.3 0.0581,0.54211 c 1.9484,-0.20904 10.536,-0.7424 15.317,-1.2785 5.6266,-0.63088 12.48,-1.4148 18.985,-2.2561 5.7493,-0.7436 10.91,-1.4898 15.464,-2.2643 6.1415,-1.0444 9.8608,-1.9173 12.34,-2.5745 -2.4354,0.64549 -6.2646,1.4556 -12.375,2.3619 -4.5579,0.67606 -9.7448,1.3124 -15.495,1.9355 -6.5317,0.70777 -13.363,1.3508 -19.015,1.8823 -6.0132,0.56547 -12.164,0.76887 -15.339,1.1094 l 0.0581,0.54211 z"
           id="path24863"
           style="fill:#000000;fill-opacity:1" />
        <path
           d="m 124.59,125.14 0.0372,0.4291 c 2.6785,-0.23271 6.7913,-0.61398 10.319,-0.97952 3.7376,-0.38719 7.1338,-0.78583 10.152,-1.2499 3.0485,-0.46866 5.4853,-0.96846 7.7698,-1.5416 2.2221,-0.55748 4.1272,-1.1443 5.5034,-1.5696 -1.3778,0.42589 -3.296,0.96026 -5.5338,1.4386 -2.2998,0.49152 -4.7445,0.88743 -7.7972,1.2459 -3.0114,0.35359 -6.4312,0.64886 -10.162,0.95296 -4.1291,0.33662 -7.0517,0.56045 -10.327,0.84507 l 0.0372,0.42909 z"
           id="path24865"
           style="fill:#000000;fill-opacity:1" />
        <path
           d="m 135.74,113.93 c 0,0 0.0319,0.42953 0.0319,0.42953 2.5168,-0.18704 6.7023,-0.66085 12.839,-1.7291 4.5714,-0.79571 9.7563,-1.8422 15.038,-3.0793 5.2993,-1.2414 10.14,-2.5446 14.196,-3.8052 5.4755,-1.7019 8.5365,-3.016 10.308,-3.907 -1.7551,0.88279 -4.8777,2.1492 -10.357,3.7442 -4.0682,1.1842 -8.9348,2.4015 -14.242,3.548 -5.2994,1.1448 -10.479,2.0984 -15.055,2.8174 -6.1681,0.96894 -10.271,1.3649 -12.79,1.5522 0,0 0.0319,0.42953 0.0319,0.42953 z"
           id="path24867"
           style="fill:#000000;fill-opacity:1" />
        <path
           d="m 147.71,103.59 0.0569,0.42693 c 1.5559,-0.20757 5.1603,-0.70929 9.0892,-1.3063 4.1694,-0.63352 9.4112,-1.4798 14.693,-2.5065 4.6242,-0.89889 8.9022,-1.862 12.702,-2.9017 5.1296,-1.4035 8.2989,-2.6493 10.377,-3.6071 -2.0598,0.94919 -5.2936,2.1474 -10.42,3.4426 -3.8095,0.96237 -8.1077,1.839 -12.736,2.6425 -5.3059,0.92106 -10.528,1.6558 -14.717,2.2105 -3.1753,0.42047 -5.9254,0.75151 -9.1008,1.172 l 0.0569,0.42694 z"
           id="path24869"
           style="fill:#000000;fill-opacity:1" />
        <path
           d="m 161.82,92.459 0.0976,0.4195 c 2.8006,-0.65195 5.0594,-1.1573 8.9437,-1.9803 3.3335,-0.70633 7.0606,-1.474 10.491,-2.3312 3.6216,-0.90493 6.9126,-1.9021 10.351,-3.1916 3.4026,-1.2762 6.3465,-2.6162 8.6715,-3.7231 -2.3092,1.0994 -5.3081,2.4059 -8.7173,3.5965 -3.4585,1.2079 -6.7729,2.1056 -10.403,2.8987 -3.4102,0.74507 -7.2136,1.4141 -10.535,2.0377 -3.647,0.68476 -6.4433,1.2596 -8.9966,1.8541 l 0.0976,0.4195 z"
           id="path24871"
           style="fill:#000000;fill-opacity:1" />
        <path
           d="m 176.2,82.04 0.093,0.42055 c 6.0666,-1.342 13.863,-3.7372 22.151,-7.8551 7.67,-3.8107 13.146,-7.8079 15.692,-9.6711 -2.539,1.8578 -8.1589,5.6912 -15.88,9.2829 -8.4372,3.9251 -16.047,6.0521 -22.15,7.4022 l 0.093,0.42055 z"
           id="path24873"
           style="fill:#000000;fill-opacity:1" />
        <path
           d="m 195.3,66.829 0.16487,0.39791 c 1.9384,-0.80312 8.1248,-3.3147 10.416,-4.3408 2.6171,-1.1725 4.8852,-2.3545 7.0872,-4.0052 2.2148,-1.6603 4.2633,-3.7183 6.5855,-6.4638 2.9338,-3.4687 6.4534,-8.2614 9.0263,-11.763 -2.5937,3.5305 -6.1294,8.2267 -9.155,11.652 -2.3793,2.6939 -4.4717,4.6651 -6.7093,6.2261 -2.2142,1.5447 -4.489,2.629 -7.109,3.7195 -3.0912,1.2867 -7.3794,2.893 -10.47,4.1795 l 0.16486,0.39791 z"
           id="path24875"
           style="fill:#000000;fill-opacity:1" />
      </g>
      <path
         d="m 197.02815,53.23595 c -22.29116,21.945311 -52.93647,44.345464 -74.65033,69.98652 -30.835736,36.41308 -37.091519,71.76383 -89.117235,131.16621 52.988548,-55.98129 62.6509,-93.2412 91.875675,-130.04234 20.22067,-25.463242 53.72337,-49.555877 71.87977,-71.111337 z"
         fill="#4d4d4d"
         fill-rule="evenodd"
         stroke="#000000"
         stroke-width="1.0902"
         id="path24879" />
    </g>
    <ellipse
       style="display:inline;fill:url(#radialGradient42526);fill-opacity:1;stroke:#000000;stroke-width:0.860404;stroke-linejoin:round;stroke-miterlimit:4;stroke-dasharray:none;stroke-opacity:1"
       id="path27751"
       cx="-93.785362"
       cy="18.36034"
       rx="14.334737"
       ry="13.572453"
       transform="scale(-1,1)" />
    <rect
       style="display:inline;fill:#ffd42a;fill-opacity:1;stroke:#000000;stroke-width:0.571305;stroke-linejoin:round;stroke-opacity:1"
       id="rect27855"
       width="3.621531"
       height="15.153243"
       x="-95.679039"
       y="29.95694"
       ry="1.8107655"
       transform="scale(-1,1)" />
  </g>
  <g
     inkscape:groupmode="layer"
     id="g3198"
     inkscape:label="earring copy">
    <g
       id="g3192"
       transform="matrix(-0.59552466,0.50504166,-0.50504166,-0.59552466,305.74858,146.68763)"
       style="display:inline"
       inkscape:label="feather">
      <path
         d="m 80.024664,154.20168 1.000796,-26.13267 c 4.660683,-9.32529 16.159969,-21.09471 28.73324,-32.207825 l -1.61802,17.937285 11.35619,-26.263706 c 12.86155,-10.67488 25.32099,-19.876506 31.45306,-24.423253 l -4.40983,19.198398 8.56202,-21.02624 c 11.7041,-8.059649 47.05862,-19.544803 69.17472,-50.168882 3.18453,33.987782 -36.81717,81.336336 -43.54968,99.443013 l -31.77999,11.95499 31.20472,-8.76611 c -2.76237,9.90223 -6.63937,19.02907 -11.60146,27.60216 l -28.64656,10.75594 23.70175,-2.90787 c -6.3587,9.31314 -14.086,18.00921 -23.13943,26.40823 l -31.23754,9.21721 28.62465,-5.86633 c -21.68145,19.26496 -42.129999,31.86613 -68.06526,31.29737 0,0 -0.986898,-0.89246 -1.876888,-1.48637 -7.277512,-37.24847 0.654243,-64.68817 10.817701,-77.25781 0.270793,2.27946 1.167625,21.225 1.296403,22.69236 z"
         fill="url(#linearGradient846-5)"
         fill-rule="evenodd"
         stroke="#000000"
         stroke-width="0.9801"
         id="path3140"
         style="display:inline;fill:url(#linearGradient3202);fill-opacity:1" />
      <path
         d="m 70.121747,209.92683 52.197923,-84.61534 c 34.19954,-37.594743 87.52291,-74.638143 101.75535,-112.807829 2.50022,35.668828 -28.68319,64.952068 -43.11818,97.410679 l -32.01255,12.58969 30.98671,-8.53878 c -2.38927,9.52449 -6.02527,18.41823 -11.09863,27.09642 l -28.93231,11.03511 23.75074,-2.95598 c -6.05737,8.67967 -13.64293,17.26777 -22.95572,26.19039 l -31.47023,9.4831 28.0609,-5.33387 c -22.41191,19.69327 -42.965694,30.43754 -67.163727,30.44957 z"
         fill-opacity="0.178"
         fill-rule="evenodd"
         stroke-width="1.0902"
         id="path3142"
         style="display:none" />
      <g
         fill="#ff8080"
         stroke="#000000"
         stroke-width="0.2"
         id="g3188"
         style="display:inline;opacity:0.156351;fill:#000000;fill-opacity:1"
         transform="rotate(-5,127.56904,131.09839)">
        <path
           d="m 69.788,195.36 c 0,0 0.54168,-0.062 0.54168,-0.062 -0.40623,-3.5468 -0.99696,-8.8225 -1.3429,-14.244 -0.35784,-5.6058 -0.45656,-11.265 -0.04264,-17.059 0.41596,-5.822 1.3085,-11.206 2.5955,-16.473 1.2632,-5.1686 2.7965,-9.7432 4.0008,-13.015 -1.2056,3.2759 -2.8001,7.8186 -4.1659,12.974 -1.3904,5.2478 -2.4165,10.626 -2.9737,16.469 -0.55466,5.8159 -0.58827,11.509 -0.33274,17.154 0.24792,5.4764 0.7687,10.742 1.1783,14.317 0,0 0.54168,-0.062 0.54168,-0.062 z"
           id="path3144"
           style="fill:#000000;fill-opacity:1" />
        <path
           d="m 86.793,171.85 0.54498,-0.0161 c -0.15566,-5.2738 -0.66254,-16.917 0.02215,-28.188 0.7707,-12.687 2.8311,-22.775 5.0198,-30.482 -2.2219,7.8242 -4.4814,17.608 -5.5636,30.443 -0.95777,11.358 -0.72606,22.916 -0.56833,28.259 l 0.54498,-0.0161 z"
           id="path3146"
           style="fill:#000000;fill-opacity:1" />
        <path
           d="m 78.197,184.73 0.54441,-0.0297 c -0.37345,-6.8359 -0.81938,-14.214 -0.91922,-21.662 -0.08968,-6.6893 0.16532,-11.156 0.39676,-13.57 -0.23445,2.4465 -0.75524,6.8244 -0.94197,13.567 -0.1954,7.0558 0.02401,15.289 0.37561,21.726 l 0.54441,-0.0297 z"
           id="path3148"
           style="fill:#000000;fill-opacity:1" />
        <path
           d="m 99.514,154.61 0.54499,-0.0161 c -0.10108,-3.4244 -0.25385,-6.1127 -0.48952,-10.891 -0.20628,-4.1826 -0.39686,-8.6098 -0.284,-13.138 0.11598,-4.6536 0.54148,-9.1215 1.3666,-13.902 0.8131,-4.7102 1.9077,-9.0629 2.8564,-12.404 -0.95367,3.3583 -2.1041,7.6575 -3.024,12.373 -0.93059,4.77 -1.4871,9.2353 -1.7439,13.911 -0.25018,4.555 -0.19494,8.9934 -0.09066,13.194 0.04009,1.613 0.31191,10.65 0.31899,10.889 l 0.54498,-0.0161 z"
           id="path3150"
           style="fill:#000000;fill-opacity:1" />
        <path
           d="m 111.99,138.78 0.54499,-0.0161 c -0.0821,-2.7816 -0.2255,-6.4714 -0.33324,-9.7492 -0.11004,-3.3475 -0.1752,-6.1308 -0.12993,-8.7196 0.0454,-2.5966 0.20022,-4.8862 0.45423,-7.4457 0.23887,-2.4069 0.58505,-5.1918 0.85014,-7.1441 -0.27133,1.9983 -0.66948,4.6343 -1.0193,7.1238 -0.35638,2.5361 -0.64663,4.8465 -0.82976,7.442 -0.18441,2.6138 -0.25114,5.3878 -0.24531,8.7596 0.006,3.2165 0.0816,7.0024 0.16321,9.7653 l 0.54498,-0.0161 z"
           id="path3152"
           style="fill:#000000;fill-opacity:1" />
        <path
           d="m 122.18,123.88 0.43014,-0.0221 c -0.34001,-6.6084 -0.008,-14.196 2.1719,-22.944 1.7685,-7.097 4.655,-13.968 5.3118,-15.573 -0.59614,1.4559 -3.8002,8.5314 -5.7284,15.463 -2.4079,8.6558 -2.9556,16.492 -2.6157,23.098 l 0.43015,-0.0221 z"
           id="path3154"
           style="fill:#000000;fill-opacity:1" />
        <path
           d="m 133.97,114.3 0.4298,-0.0279 c -0.32713,-5.031 0.0489,-11.366 2.4145,-20.228 1.8619,-6.9754 5.1651,-15.669 5.894,-17.63 -0.60478,1.6272 -4.355,10.904 -6.3087,17.513 -2.5891,8.7592 -3.1892,15.329 -2.8594,20.401 l 0.4298,-0.0279 z"
           id="path3156"
           style="fill:#000000;fill-opacity:1" />
        <path
           d="m 146.24,104.96 c 0,0 0.43071,-7.1e-4 0.43071,-7.1e-4 -0.004,-2.1244 0.009,-4.7653 0.23198,-7.276 0.16972,-1.9075 0.44354,-3.5838 0.87149,-5.3361 0.42115,-1.7244 0.976,-3.4535 1.5991,-5.3148 0.82072,-2.4514 1.7446,-5.1653 2.3976,-7.1382 -0.77492,2.3412 -1.526,4.3546 -2.5578,7.081 -0.69074,1.8253 -1.342,3.5501 -1.8545,5.2588 -0.52514,1.7507 -0.89272,3.4386 -1.1432,5.3741 -0.32748,2.5311 -0.40963,5.227 -0.40615,7.3525 0,0 0.43072,-7.1e-4 0.43072,-7.1e-4 z"
           id="path3158"
           style="fill:#000000;fill-opacity:1" />
        <path
           d="m 161.12,92.517 c 0,0 0.42847,0.04401 0.42847,0.04401 0.27863,-2.7162 0.63482,-5.9827 1.1869,-9.0162 0.41862,-2.3003 0.90582,-4.2493 1.554,-6.3041 0.63014,-1.9974 1.4096,-4.0777 2.2498,-6.3368 1.3627,-3.6641 2.1041,-5.7248 3.2533,-9.0484 -1.0165,2.9397 -2.0894,5.745 -3.4118,8.9866 -0.89939,2.2046 -1.787,4.304 -2.4992,6.2601 -0.74369,2.0426 -1.3235,3.9909 -1.8243,6.3076 -0.65566,3.0334 -1.0878,6.3536 -1.3658,9.0633 l 0.42847,0.04391 z"
           id="path3160"
           style="fill:#000000;fill-opacity:1" />
        <path
           d="m 174.91,82.491 0.42897,0.03891 c 0.27486,-3.0342 0.83055,-6.6497 2.1704,-10.318 0.99646,-2.7276 2.2648,-5.0579 3.7798,-7.2882 1.4504,-2.1351 3.1209,-4.1554 4.5144,-5.9106 2.089,-2.6312 3.2375,-4.2832 4.3041,-6.1084 -1.037,1.7744 -2.3038,3.4898 -4.4355,6.0004 -1.441,1.6971 -3.2018,3.6748 -4.7351,5.7702 -1.6082,2.1979 -2.982,4.5296 -4.074,7.2906 -1.4645,3.7025 -2.1039,7.4135 -2.3821,10.485 l 0.42896,0.03881 z"
           id="path3162"
           style="fill:#000000;fill-opacity:1" />
        <path
           d="m 194.44,67.505 0.41416,0.11828 c 0.88131,-3.086 2.0695,-7.0258 3.6713,-10.378 1.2402,-2.5957 2.6768,-4.7812 4.683,-7.0511 1.9798,-2.2401 4.4528,-4.4885 7.3527,-7.0405 5.8842,-5.1785 6.1993,-5.3675 11.588,-10.227 -4.1239,3.7197 -7.0141,6.1374 -11.698,10.099 -2.9401,2.4863 -5.4985,4.6866 -7.5599,6.8791 -2.1027,2.2364 -3.6453,4.413 -4.9845,7.035 -1.7251,3.3773 -2.9947,7.3485 -3.8798,10.448 l 0.41416,0.11828 z"
           id="path3164"
           style="fill:#000000;fill-opacity:1" />
        <path
           d="m 70.229,194.7 -0.03528,0.54408 c 4.0922,0.26565 12.972,0.74967 21.374,0.0833 9.5434,-0.75682 16.691,-2.7404 22.423,-4.7416 -5.6534,1.9741 -13.04,3.7492 -22.457,4.1976 -8.2979,0.39514 -17.246,-0.3662 -21.269,-0.62736 l -0.03528,0.54407 z"
           id="path3166"
           style="fill:#000000;fill-opacity:1" />
        <path
           d="m 87.273,172.38 0.05812,0.54212 c 3.2812,-0.35205 6.7335,-0.63296 12.141,-0.90799 4.7099,-0.23953 11.009,-0.46376 16.545,-0.92025 6.0171,-0.49628 11.552,-1.2739 17.077,-2.5955 5.4842,-1.3118 9.8716,-2.9071 13.241,-4.2978 -3.3566,1.3852 -7.797,2.9283 -13.279,4.1318 -5.5323,1.2144 -11.077,1.8638 -17.077,2.2177 -5.5009,0.3245 -11.843,0.40182 -16.544,0.54482 -5.3166,0.1617 -9.0176,0.39945 -12.22,0.74307 l 0.05812,0.54211 z"
           id="path3168"
           style="fill:#000000;fill-opacity:1" />
        <path
           d="m 79.256,182.82 -0.05616,0.54233 c 4.6528,0.4815 12.281,0.94042 20.307,0.6616 8.1916,-0.28458 13.01,-1.1863 15.801,-1.8398 -2.6986,0.63178 -7.7509,1.3073 -15.811,1.2947 -8.1726,-0.0127 -15.391,-0.70488 -20.185,-1.2011 l -0.05616,0.54233 z"
           id="path3170"
           style="fill:#000000;fill-opacity:1" />
        <path
           d="m 98.458,155.97 0.0581,0.54211 c 3.3666,-0.36121 8.7826,-0.53959 13.992,-0.88458 4.5728,-0.30284 10.163,-0.6144 15.358,-1.1778 5.5286,-0.59947 10.651,-1.4718 15.886,-2.8527 5.1936,-1.3698 9.5167,-2.9873 12.88,-4.3754 -3.3482,1.3818 -7.728,2.9486 -12.922,4.2102 -5.2472,1.2745 -10.381,2.0181 -15.896,2.4751 -5.1703,0.4284 -10.789,0.59811 -15.357,0.80186 -5.0582,0.22558 -10.833,0.37307 -14.058,0.71902 l 0.0581,0.54211 z"
           id="path3172"
           style="fill:#000000;fill-opacity:1" />
        <path
           d="m 110.13,140.3 0.0581,0.54211 c 1.9484,-0.20904 10.536,-0.7424 15.317,-1.2785 5.6266,-0.63088 12.48,-1.4148 18.985,-2.2561 5.7493,-0.7436 10.91,-1.4898 15.464,-2.2643 6.1415,-1.0444 9.8608,-1.9173 12.34,-2.5745 -2.4354,0.64549 -6.2646,1.4556 -12.375,2.3619 -4.5579,0.67606 -9.7448,1.3124 -15.495,1.9355 -6.5317,0.70777 -13.363,1.3508 -19.015,1.8823 -6.0132,0.56547 -12.164,0.76887 -15.339,1.1094 l 0.0581,0.54211 z"
           id="path3174"
           style="fill:#000000;fill-opacity:1" />
        <path
           d="m 124.59,125.14 0.0372,0.4291 c 2.6785,-0.23271 6.7913,-0.61398 10.319,-0.97952 3.7376,-0.38719 7.1338,-0.78583 10.152,-1.2499 3.0485,-0.46866 5.4853,-0.96846 7.7698,-1.5416 2.2221,-0.55748 4.1272,-1.1443 5.5034,-1.5696 -1.3778,0.42589 -3.296,0.96026 -5.5338,1.4386 -2.2998,0.49152 -4.7445,0.88743 -7.7972,1.2459 -3.0114,0.35359 -6.4312,0.64886 -10.162,0.95296 -4.1291,0.33662 -7.0517,0.56045 -10.327,0.84507 l 0.0372,0.42909 z"
           id="path3176"
           style="fill:#000000;fill-opacity:1" />
        <path
           d="m 135.74,113.93 c 0,0 0.0319,0.42953 0.0319,0.42953 2.5168,-0.18704 6.7023,-0.66085 12.839,-1.7291 4.5714,-0.79571 9.7563,-1.8422 15.038,-3.0793 5.2993,-1.2414 10.14,-2.5446 14.196,-3.8052 5.4755,-1.7019 8.5365,-3.016 10.308,-3.907 -1.7551,0.88279 -4.8777,2.1492 -10.357,3.7442 -4.0682,1.1842 -8.9348,2.4015 -14.242,3.548 -5.2994,1.1448 -10.479,2.0984 -15.055,2.8174 -6.1681,0.96894 -10.271,1.3649 -12.79,1.5522 0,0 0.0319,0.42953 0.0319,0.42953 z"
           id="path3178"
           style="fill:#000000;fill-opacity:1" />
        <path
           d="m 147.71,103.59 0.0569,0.42693 c 1.5559,-0.20757 5.1603,-0.70929 9.0892,-1.3063 4.1694,-0.63352 9.4112,-1.4798 14.693,-2.5065 4.6242,-0.89889 8.9022,-1.862 12.702,-2.9017 5.1296,-1.4035 8.2989,-2.6493 10.377,-3.6071 -2.0598,0.94919 -5.2936,2.1474 -10.42,3.4426 -3.8095,0.96237 -8.1077,1.839 -12.736,2.6425 -5.3059,0.92106 -10.528,1.6558 -14.717,2.2105 -3.1753,0.42047 -5.9254,0.75151 -9.1008,1.172 l 0.0569,0.42694 z"
           id="path3180"
           style="fill:#000000;fill-opacity:1" />
        <path
           d="m 161.82,92.459 0.0976,0.4195 c 2.8006,-0.65195 5.0594,-1.1573 8.9437,-1.9803 3.3335,-0.70633 7.0606,-1.474 10.491,-2.3312 3.6216,-0.90493 6.9126,-1.9021 10.351,-3.1916 3.4026,-1.2762 6.3465,-2.6162 8.6715,-3.7231 -2.3092,1.0994 -5.3081,2.4059 -8.7173,3.5965 -3.4585,1.2079 -6.7729,2.1056 -10.403,2.8987 -3.4102,0.74507 -7.2136,1.4141 -10.535,2.0377 -3.647,0.68476 -6.4433,1.2596 -8.9966,1.8541 l 0.0976,0.4195 z"
           id="path3182"
           style="fill:#000000;fill-opacity:1" />
        <path
           d="m 176.2,82.04 0.093,0.42055 c 6.0666,-1.342 13.863,-3.7372 22.151,-7.8551 7.67,-3.8107 13.146,-7.8079 15.692,-9.6711 -2.539,1.8578 -8.1589,5.6912 -15.88,9.2829 -8.4372,3.9251 -16.047,6.0521 -22.15,7.4022 l 0.093,0.42055 z"
           id="path3184"
           style="fill:#000000;fill-opacity:1" />
        <path
           d="m 195.3,66.829 0.16487,0.39791 c 1.9384,-0.80312 8.1248,-3.3147 10.416,-4.3408 2.6171,-1.1725 4.8852,-2.3545 7.0872,-4.0052 2.2148,-1.6603 4.2633,-3.7183 6.5855,-6.4638 2.9338,-3.4687 6.4534,-8.2614 9.0263,-11.763 -2.5937,3.5305 -6.1294,8.2267 -9.155,11.652 -2.3793,2.6939 -4.4717,4.6651 -6.7093,6.2261 -2.2142,1.5447 -4.489,2.629 -7.109,3.7195 -3.0912,1.2867 -7.3794,2.893 -10.47,4.1795 l 0.16486,0.39791 z"
           id="path3186"
           style="fill:#000000;fill-opacity:1" />
      </g>
      <path
         d="m 197.02815,53.23595 c -22.29116,21.945311 -52.93647,44.345464 -74.65033,69.98652 -30.835736,36.41308 -37.091519,71.76383 -89.117235,131.16621 52.988548,-55.98129 62.6509,-93.2412 91.875675,-130.04234 20.22067,-25.463242 53.72337,-49.555877 71.87977,-71.111337 z"
         fill="#4d4d4d"
         fill-rule="evenodd"
         stroke="#000000"
         stroke-width="1.0902"
         id="path3190" />
    </g>
    <ellipse
       style="display:inline;fill:url(#radialGradient3200);fill-opacity:1;stroke:#000000;stroke-width:0.860404;stroke-linejoin:round;stroke-miterlimit:4;stroke-dasharray:none;stroke-opacity:1"
       id="ellipse3194"
       cx="158.1163"
       cy="18.90069"
       rx="14.334737"
       ry="13.572453" />
    <rect
       style="display:inline;fill:#ffd42a;fill-opacity:1;stroke:#000000;stroke-width:0.571305;stroke-linejoin:round;stroke-opacity:1"
       id="rect3196"
       width="3.621531"
       height="15.153243"
       x="156.22263"
       y="30.49729"
       ry="1.8107655" />
  </g>
</svg>
