<?xml version="1.0" encoding="UTF-8" standalone="no"?>
<svg
   inkscape:version="1.1.1 (26b7af14f2, 2022-01-19)"
   sodipodi:docname="horseshoe_hair_clip.svg"
   id="svg34418"
   viewBox="0 0 100 100"
   version="1.1"
   xmlns:inkscape="http://www.inkscape.org/namespaces/inkscape"
   xmlns:sodipodi="http://sodipodi.sourceforge.net/DTD/sodipodi-0.dtd"
   xmlns:xlink="http://www.w3.org/1999/xlink"
   xmlns="http://www.w3.org/2000/svg"
   xmlns:svg="http://www.w3.org/2000/svg">
  <sodipodi:namedview
     id="namedview34420"
     pagecolor="#ffffff"
     bordercolor="#666666"
     borderopacity="1.0"
     inkscape:pageshadow="2"
     inkscape:pageopacity="0.0"
     inkscape:pagecheckerboard="0"
     showgrid="false"
     inkscape:zoom="5.1807137"
     inkscape:cx="53.66056"
     inkscape:cy="49.8966"
     inkscape:window-width="1853"
     inkscape:window-height="1024"
     inkscape:window-x="67"
     inkscape:window-y="28"
     inkscape:window-maximized="1"
     inkscape:current-layer="layer6"
     inkscape:snap-nodes="false" />
  <defs
     id="defs34368">
    <inkscape:path-effect
       effect="mirror_symmetry"
       start_point="34.427735,15.533319"
       end_point="34.320721,70.579478"
       center_point="34.374228,43.056398"
       id="path-effect8554"
       is_visible="true"
       lpeversion="1.1"
       mode="free"
       discard_orig_path="false"
       fuse_paths="true"
       oposite_fuse="false"
       split_items="false"
       split_open="false" />
    <inkscape:path-effect
       effect="mirror_symmetry"
       start_point="34.427735,15.533319"
       end_point="34.320721,70.579478"
       center_point="34.374228,43.056398"
       id="path-effect6940"
       is_visible="true"
       lpeversion="1.1"
       mode="free"
       discard_orig_path="false"
       fuse_paths="true"
       oposite_fuse="false"
       split_items="false"
       split_open="false" />
    <linearGradient
       id="innoGrad7">
      <stop
         stop-color="#ffd5d5"
         offset="0"
         id="stop174519"
         style="stop-color:#ffaaaa;stop-opacity:1" />
      <stop
         stop-color="#ff8080"
         offset="1"
         id="stop174521"
         style="stop-color:#ff2a2a;stop-opacity:1" />
    </linearGradient>
    <linearGradient
       id="innoGrad8">
      <stop
         stop-color="#ffd5d5"
         offset="0"
         id="stop174321"
         style="stop-color:#ffaaaa;stop-opacity:1" />
      <stop
         stop-color="#ff8080"
         offset="1"
         id="stop174323"
         style="stop-color:#ff5555;stop-opacity:1" />
    </linearGradient>
    <inkscape:path-effect
       effect="taper_stroke"
       id="path-effect39852"
       is_visible="true"
       lpeversion="1"
       stroke_width="0.7"
       attach_start="0.2"
       end_offset="0.2"
       start_smoothing="0.5"
       end_smoothing="0.5"
       jointype="extrapolated"
       start_shape="center"
       end_shape="center"
       miter_limit="100" />
    <linearGradient
       id="linearGradient36645"
       inkscape:swatch="solid">
      <stop
         style="stop-color:#747400;stop-opacity:1;"
         offset="0"
         id="stop36643" />
    </linearGradient>
    <linearGradient
       id="innoGrad6">
      <stop
         stop-color="#ff7f2a"
         offset="0"
         id="stop34331" />
      <stop
         stop-color="#ffb380"
         offset="1"
         id="stop34333" />
    </linearGradient>
    <linearGradient
       id="innoGrad5">
      <stop
         stop-color="#ffe6d5"
         offset="0"
         id="stop34336" />
      <stop
         stop-color="#fca"
         offset="1"
         id="stop34338" />
    </linearGradient>
    <linearGradient
       id="innoGrad3">
      <stop
         stop-color="#ffd5d5"
         offset="0"
         id="stop34341" />
      <stop
         stop-color="#ff8080"
         offset="1"
         id="stop34343" />
    </linearGradient>
    <linearGradient
       id="innoGrad0">
      <stop
         stop-color="#ffd5d5"
         offset="0"
         id="stop34346" />
      <stop
         stop-color="#faa"
         offset="1"
         id="stop34348" />
    </linearGradient>
    <linearGradient
       id="linearGradient933"
       x1="28.496"
       x2="23.366"
       y1="62.712"
       y2="74.326"
       gradientTransform="matrix(.66226 -.02137 .02137 .66226 21.121 25.217)"
       gradientUnits="userSpaceOnUse"
       xlink:href="#innoGrad6" />
    <linearGradient
       id="linearGradient1002"
       x1="37.139"
       x2="43.05"
       y1="40.36"
       y2="46.08"
       gradientTransform="matrix(.66226 -.02137 .02137 .66226 21.121 25.217)"
       gradientUnits="userSpaceOnUse"
       xlink:href="#innoGrad6" />
    <linearGradient
       id="linearGradient1010"
       x1="25.603"
       x2="38.425"
       y1="43.076"
       y2="59.231"
       gradientTransform="matrix(.66226 -.02137 .02137 .66226 21.121 25.217)"
       gradientUnits="userSpaceOnUse"
       xlink:href="#innoGrad6" />
    <linearGradient
       id="linearGradient1018"
       x1="35.855"
       x2="44.506"
       y1="49.489"
       y2="77.653"
       gradientTransform="matrix(.66226 -.02137 .02137 .66226 21.121 25.217)"
       gradientUnits="userSpaceOnUse"
       xlink:href="#innoGrad5" />
    <linearGradient
       id="linearGradient1020"
       x1="34.879"
       x2="40.699"
       y1="30.501"
       y2="56.868"
       gradientTransform="matrix(.66226 -.02137 .02137 .66226 21.121 25.217)"
       gradientUnits="userSpaceOnUse"
       xlink:href="#innoGrad5" />
    <linearGradient
       id="linearGradient1022"
       x1="46.329"
       x2="49.711"
       y1="14.67"
       y2="36.393"
       gradientTransform="matrix(.66226 -.02137 .02137 .66226 21.121 25.217)"
       gradientUnits="userSpaceOnUse"
       xlink:href="#innoGrad5" />
    <linearGradient
       id="linearGradient1044"
       x1="43.227"
       x2="54.91"
       y1="46.833"
       y2="50.441"
       gradientTransform="matrix(.66226 -.02137 .02137 .66226 21.121 25.217)"
       gradientUnits="userSpaceOnUse"
       xlink:href="#innoGrad6" />
    <linearGradient
       id="linearGradient1057"
       x1="45.661"
       x2="53.817"
       y1="26.91"
       y2="5.936"
       gradientUnits="userSpaceOnUse"
       xlink:href="#innoGrad0" />
    <linearGradient
       id="linearGradient1067"
       x1="48.261"
       x2="54.9"
       y1="13.131"
       y2="63.617"
       gradientUnits="userSpaceOnUse"
       xlink:href="#innoGrad0" />
    <linearGradient
       id="linearGradient1075"
       x1="51.271"
       x2="53.034"
       y1="8.936"
       y2="15.041"
       gradientUnits="userSpaceOnUse"
       xlink:href="#innoGrad3" />
    <linearGradient
       id="innoGrad9"
       x1="46.115"
       x2="45.342"
       y1="44"
       y2="22.337"
       gradientUnits="userSpaceOnUse">
      <stop
         stop-color="#f55"
         offset="0"
         id="stop34361" />
      <stop
         stop-color="#faa"
         offset="1"
         id="stop34363" />
    </linearGradient>
    <linearGradient
       id="linearGradient1097"
       x1="51.665"
       x2="51.964"
       y1="30.306"
       y2="17.577"
       gradientUnits="userSpaceOnUse"
       xlink:href="#innoGrad3" />
    <linearGradient
       id="linearGradient1154"
       x1="-92.12"
       x2="-101.04"
       y1="-11.268"
       y2="-27.802"
       gradientUnits="userSpaceOnUse"
       xlink:href="#innoGrad0" />
    <linearGradient
       inkscape:collect="always"
       xlink:href="#innoGrad5"
       id="linearGradient37477"
       gradientUnits="userSpaceOnUse"
       x1="71.6576"
       y1="34.547386"
       x2="70.732651"
       y2="38.296276"
       gradientTransform="matrix(0.90499967,0,0,1,7.7063536,8.3812422)" />
    <filter
       style="color-interpolation-filters:sRGB;"
       inkscape:label="Blur"
       id="filter177059"
       x="-0.1286436"
       y="-0.12632675"
       width="1.2572872"
       height="1.2526535">
      <feGaussianBlur
         stdDeviation="1.7 1.7"
         result="blur"
         id="feGaussianBlur177057" />
    </filter>
    <clipPath
       clipPathUnits="userSpaceOnUse"
       id="clipPath178927">
      <path
         sodipodi:type="star"
         style="opacity:0.49898;mix-blend-mode:normal;fill:url(#linearGradient178931);fill-opacity:1;stroke:none;stroke-width:0.346;stroke-linejoin:round;stroke-miterlimit:4;stroke-dasharray:none"
         id="path178929"
         inkscape:flatsided="false"
         sodipodi:sides="5"
         sodipodi:cx="17.594259"
         sodipodi:cy="27.671268"
         sodipodi:r1="16.975363"
         sodipodi:r2="10.524724"
         sodipodi:arg1="1.3500606"
         sodipodi:arg2="1.9783791"
         inkscape:rounded="0.24"
         inkscape:randomized="0"
         d="M 21.310973,44.234752 C 18.856546,44.785506 15.731749,38.330931 13.42235,37.333825 11.112952,36.336718 4.2722364,38.488578 2.9899785,36.324472 1.7077205,34.160365 6.88077,29.193933 7.1154315,26.689442 7.3500931,24.18495 3.1896549,18.344004 4.8516031,16.455759 c 1.6619481,-1.888246 7.9838659,1.496905 10.4382929,0.946151 2.454428,-0.550754 6.723851,-6.312517 9.033249,-5.315411 2.309399,0.997107 1.04351,8.055677 2.325767,10.219784 1.282258,2.164106 8.081345,4.444087 7.846684,6.948578 -0.234662,2.504491 -7.338942,3.481777 -9.00089,5.370023 -1.661949,1.888245 -1.729305,9.059114 -4.183733,9.609868 z"
         inkscape:transform-center-x="-1.9520223"
         inkscape:transform-center-y="-0.77492603"
         transform="translate(-1.0307473,-0.61999018)"
         inkscape:label="star" />
    </clipPath>
    <linearGradient
       inkscape:collect="always"
       xlink:href="#innoGrad8"
       id="linearGradient178931"
       gradientUnits="userSpaceOnUse"
       x1="13.84167"
       y1="19.723829"
       x2="20.092106"
       y2="29.991619" />
    <linearGradient
       id="linearGradient1945"
       inkscape:swatch="solid">
      <stop
         style="stop-color:#ff8080;stop-opacity:1;"
         offset="0"
         id="stop1943" />
    </linearGradient>
    <linearGradient
       inkscape:collect="always"
       xlink:href="#linearGradient1945"
       id="linearGradient8809"
       gradientUnits="userSpaceOnUse"
       gradientTransform="translate(4.8573866,14.78704)"
       x1="3.7846529"
       y1="32.029572"
       x2="61.730831"
       y2="32.029572" />
    <linearGradient
       inkscape:collect="always"
       xlink:href="#innoGrad3"
       id="linearGradient8911"
       x1="51.735733"
       y1="20.737228"
       x2="21.724878"
       y2="63.023163"
       gradientUnits="userSpaceOnUse" />
  </defs>
  <g
     inkscape:groupmode="layer"
     id="layer6"
     inkscape:label="Clip">
    <path
       id="path17668"
       style="color:#000000;display:inline;fill:#ffb380;fill-opacity:1;stroke:#000000;stroke-width:0.617;stroke-linecap:butt;stroke-linejoin:round;stroke-miterlimit:4;stroke-dasharray:none;stroke-opacity:1"
       d="m 17.563444,47.165064 c -2.709795,1.05848 -5.154641,3.786854 -3.409389,6.074623 2.519229,2.725116 7.42421,2.676774 11.282045,2.167272 20.095177,-0.894956 40.173059,-2.068546 60.294586,-2.574446 2.761398,1.79455 6.415066,-2.738895 2.30523,-3.072687 -3.818742,-0.5728 -7.709708,0.210352 -11.544437,-0.246241 C 56.833438,48.970934 37.210671,47.878763 17.563444,47.165064 Z"
       sodipodi:nodetypes="ccccccc" />
    <path
       id="path24356"
       style="display:inline;fill:url(#linearGradient37477);fill-opacity:1;stroke:#000000;stroke-width:0.631;stroke-linecap:butt;stroke-linejoin:round;stroke-miterlimit:4;stroke-dasharray:none;stroke-opacity:1;paint-order:normal"
       d="m 26.347332,36.274477 c -1.100962,0.0038 -2.09879,0.04458 -2.990234,0.130859 -0.05463,0.0054 -0.107886,0.01224 -0.162109,0.01953 -3.724878,0.492049 -5.938304,2.674196 -7.574219,5.205078 -1.635916,2.530882 -2.702178,5.718836 -3.089844,9.328125 -0.01463,0.135649 -0.01463,0.270603 0,0.40625 0.387666,3.609291 1.453928,6.79724 3.089844,9.328125 1.635915,2.530878 3.849341,4.713025 7.574219,5.205078 0.05424,0.0072 0.107475,0.01219 0.162109,0.01758 3.565777,0.345108 8.824429,-0.02276 15.652344,-0.673828 6.827913,-0.65109 15.634391,-2.416738 23.505859,-3.599609 9.480603,-0.893029 15.703216,-4.024748 28.882811,-7.019532 0.134249,0.01275 0.404296,0.02344 0.404296,0.02344 2.44901,-1.42e-4 4.434091,-1.590831 4.433594,-3.552735 4.96e-4,-1.961904 -1.984584,-3.552592 -4.433594,-3.552734 -0.03779,0.0016 -0.07555,0.0035 -0.113281,0.0059 C 81.514922,45.729984 71.387032,42.10336 61.212565,40.446395 53.341097,39.263517 45.837353,37.732253 39.00944,37.081161 c -3.413958,-0.325544 -6.435291,-0.580643 -9.048828,-0.710938 -1.306769,-0.06515 -2.512319,-0.09947 -3.613282,-0.0957 z m -0.01758,5.207031 c 2.555148,0.02101 6.859775,0.248058 11.775391,0.716797 6.613643,0.630659 14.570257,1.618582 22.28125,2.777344 7.710994,1.158763 15.19509,2.492297 20.814453,3.787109 2.547172,0.586918 4.684888,1.167523 6.25,1.685547 -0.05245,0.212345 -0.08056,0.428086 -0.08398,0.644531 0.0039,0.259168 0.0432,0.517215 0.117187,0.769532 -1.567504,0.520689 -3.718326,1.106271 -6.283203,1.697265 -5.619363,1.294812 -13.103459,2.628345 -20.814453,3.78711 -7.710993,1.158767 -15.667607,2.146685 -22.28125,2.777343 -6.554155,0.624985 -12.020344,0.819742 -13.705078,0.669922 -0.06896,-0.02818 -1.316877,-0.588762 -2.433594,-2.316406 -1.116953,-1.728012 -2.039948,-4.324038 -2.392578,-7.316406 0.35263,-2.992368 1.275625,-5.590347 2.392578,-7.31836 1.116717,-1.727643 2.364635,-2.286285 2.433594,-2.314453 0.421183,-0.03746 1.077971,-0.05388 1.929687,-0.04687 z"
       sodipodi:nodetypes="cccsccsccccccccccssccsssscccssscscscss" />
    <path
       style="display:inline;fill:#ffffff;fill-rule:nonzero;stroke:none;stroke-width:0.3;stroke-linecap:butt;stroke-linejoin:miter;stroke-miterlimit:4;stroke-dasharray:none;stroke-opacity:1"
       d="m 89.729461,48.165548 c -0.964493,-0.142596 -2.032793,-0.11354 -2.032793,-0.11354 0,0 0.859492,0.65217 1.931854,0.806225 2.0755,0.302447 3.94987,0.317838 4.525055,1.660992 0.370643,0.81918 0.461533,1.997405 0.461533,1.997405 0,0 0.682213,-1.054197 0.181947,-2.272965 -0.756522,-1.766606 -3.047593,-1.783757 -5.067596,-2.078117 z"
       id="path39101"
       sodipodi:nodetypes="cc"
       inkscape:path-effect="#path-effect39852"
       inkscape:original-d="m 87.696668,48.052008 c 3.105206,1.147994 7.651842,-0.173585 6.918442,4.464622" />
    <ellipse
       style="display:inline;fill:#ffb380;fill-rule:evenodd;stroke:#000000;stroke-width:0.6;stroke-miterlimit:4;stroke-dasharray:none;stroke-opacity:1;fill-opacity:1"
       id="path201"
       cx="92.216606"
       cy="51.248936"
       rx="1.3643484"
       ry="1.3074745" />
  </g>
  <g
     id="g8727"
     transform="matrix(0.94718105,0,0,0.90415232,-1.1107699,10.963008)"
     inkscape:label="horseshoe"
     style="display:inline">
    <path
       d="m 34.423828,17.109375 c -24.113552,0.08204 -32.223532,17.493307 -20.544922,40.871094 2.19641,4.396688 -4.0458536,1.187261 -4.7617185,2.902343 -1.1961616,2.865787 0.1459947,8.336624 2.1464845,9.066407 4.216451,1.538172 11.695332,-1.723536 16.035156,-4.679688 2.083587,-1.419273 3.040801,-2.523199 -1.580078,-9.550781 -6.495421,-9.878445 -5.18558,-22.203619 8.548828,-22.294922 0.04095,0.01074 0.08219,0.02125 0.125,0.03125 0.04285,-0.0098 0.08597,-0.01872 0.126953,-0.0293 13.733949,0.144704 14.994719,12.473057 8.460938,22.326172 -4.648169,7.009562 -3.695241,8.117558 -1.617188,9.544922 4.328297,2.973004 11.795179,6.263954 16.017578,4.742187 2.003312,-0.721999 3.364698,-6.188177 2.179688,-9.058593 C 58.851356,59.262615 52.599012,62.446709 54.8125,58.058594 66.581919,34.726392 58.536879,17.28517 34.423828,17.109375 Z"
       fill="#ff8080"
       fill-rule="evenodd"
       stroke="#000000"
       stroke-linejoin="round"
       id="path1878"
       style="display:inline;fill:url(#linearGradient8809);fill-opacity:1;fill-rule:nonzero;stroke:none;stroke-linecap:butt;stroke-linejoin:round;paint-order:normal"
       inkscape:original-d="m 34.792939,17.110436 c -24.399,-0.09456 -32.652774,17.372831 -20.91491,40.86923 2.19641,4.396688 -4.0442512,1.187852 -4.7601161,2.902935 -1.1961616,2.865787 0.1446894,8.336089 2.1451791,9.065872 4.216451,1.538172 11.69599,-1.722286 16.035814,-4.678438 2.083587,-1.419273 3.040028,-2.523904 -1.580851,-9.551486 -6.495421,-9.878445 -5.185209,-22.202541 8.549199,-22.293844 8.253211,2.164512 54.656078,-10.75154 0.526389,-16.313569 z"
       sodipodi:nodetypes="csasssccc"
       inkscape:path-effect="#path-effect6940" />
    <path
       d="m 34.423828,17.109375 c -24.113552,0.08204 -32.223532,17.493307 -20.544922,40.871094 2.19641,4.396688 -4.0458536,1.187261 -4.7617185,2.902343 -1.1961616,2.865787 0.1459947,8.336624 2.1464845,9.066407 4.216451,1.538172 11.695332,-1.723536 16.035156,-4.679688 2.083587,-1.419273 3.040801,-2.523199 -1.580078,-9.550781 -6.495421,-9.878445 -5.18558,-22.203619 8.548828,-22.294922 0.04095,0.01074 0.08219,0.02125 0.125,0.03125 0.04285,-0.0098 0.08597,-0.01872 0.126953,-0.0293 13.733949,0.144704 14.994718,12.473057 8.460938,22.326172 -4.648169,7.009562 -3.695241,8.117558 -1.617188,9.544922 4.328298,2.973003 11.795179,6.263954 16.017578,4.742187 2.003312,-0.721999 3.364698,-6.188177 2.179688,-9.058593 C 58.851356,59.262615 52.599012,62.446709 54.8125,58.058594 66.581918,34.726391 58.536879,17.28517 34.423828,17.109375 Z m -6.469989,5.04366 c 2.028542,0 3.673,1.605417 3.673,3.5858 8.49e-4,1.980968 -1.643858,3.5873 -3.673,3.5873 -2.029142,0 -3.673849,-1.606332 -3.673,-3.5873 0,-1.980383 1.644458,-3.5858 3.673,-3.5858 z m 12.922005,0.02512 c -2.028527,-0.0079 -3.679215,1.591124 -3.686915,3.571492 -0.0086,1.98095 1.629898,3.593665 3.659025,3.601554 2.029126,0.0079 3.680067,-1.592035 3.68692,-3.572992 0.0077,-1.980368 -1.630504,-3.592166 -3.65903,-3.600054 z m -22.771758,7.111743 c 2.028542,0 3.673,1.605417 3.673,3.5858 0,1.980383 -1.644458,3.5858 -3.673,3.5858 -2.028542,0 -3.673,-1.605417 -3.673,-3.5858 0,-1.980383 1.644458,-3.5858 3.673,-3.5858 z m 32.593687,0.06337 c -2.028527,-0.0079 -3.679214,1.591123 -3.686914,3.571491 -0.0077,1.980368 1.630503,3.592167 3.65903,3.600054 2.028527,0.0079 3.679214,-1.591123 3.686914,-3.571491 0.0077,-1.980368 -1.630503,-3.592167 -3.65903,-3.600054 z M 15.198765,40.437999 c 1.825956,0 3.305948,1.446229 3.3051,3.2297 -7.91e-4,1.782339 -1.480303,3.2268 -3.3051,3.2268 -1.824797,0 -3.304309,-1.444461 -3.3051,-3.2268 0,-1.782886 1.479744,-3.2282 3.3051,-3.2282 z m 38.360962,0.07458 c -1.825942,-0.0071 -3.311546,1.433364 -3.317633,3.216825 -0.0061,1.782328 1.467746,3.232531 3.292529,3.239626 1.824783,0.0071 3.3099,-1.431603 3.317621,-3.213925 0.0069,-1.782873 -1.467181,-3.233929 -3.292523,-3.241026 z"
       fill="#ff8080"
       fill-rule="evenodd"
       stroke="#000000"
       stroke-linejoin="round"
       id="path8550"
       style="display:inline;fill:url(#linearGradient8911);fill-opacity:1;stroke-linecap:butt;stroke-linejoin:round;paint-order:normal"
       sodipodi:nodetypes="csassscccscscssssssccsccc"
       inkscape:original-d="m 34.792939,17.110436 c -24.399,-0.09456 -32.652774,17.372831 -20.91491,40.86923 2.19641,4.396688 -4.0442512,1.187852 -4.7601161,2.902935 -1.1961616,2.865787 0.1446894,8.336089 2.1451791,9.065872 4.216451,1.538172 11.69599,-1.722286 16.035814,-4.678438 2.083587,-1.419273 3.040028,-2.523904 -1.580851,-9.551486 -6.495421,-9.878445 -5.185209,-22.202541 8.549199,-22.293844 8.253211,2.164512 54.656078,-10.75154 0.526389,-16.313569 z m -6.8391,5.042599 c 2.028542,0 3.673,1.605417 3.673,3.5858 8.49e-4,1.980968 -1.643858,3.5873 -3.673,3.5873 -2.029142,0 -3.673849,-1.606332 -3.673,-3.5873 0,-1.980383 1.644458,-3.5858 3.673,-3.5858 z m -9.849753,7.136864 c 2.028542,0 3.673,1.605417 3.673,3.5858 0,1.980383 -1.644458,3.5858 -3.673,3.5858 -2.028542,0 -3.673,-1.605417 -3.673,-3.5858 0,-1.980383 1.644458,-3.5858 3.673,-3.5858 z m -2.905321,11.1481 c 1.825956,0 3.305948,1.446229 3.3051,3.2297 -7.91e-4,1.782339 -1.480303,3.2268 -3.3051,3.2268 -1.824797,0 -3.304309,-1.444461 -3.3051,-3.2268 0,-1.782886 1.479744,-3.2282 3.3051,-3.2282 z"
       inkscape:path-effect="#path-effect8554" />
  </g>
</svg>
