<?xml version="1.0" encoding="UTF-8" standalone="no"?>
<svg
   cursor="default"
   version="1.1"
   viewBox="0 0 256 256"
   id="svg9"
   sodipodi:docname="tempf_trinity.svg"
   inkscape:version="1.3.1 (9b9bdc1480, 2023-11-25, custom)"
   xmlns:inkscape="http://www.inkscape.org/namespaces/inkscape"
   xmlns:sodipodi="http://sodipodi.sourceforge.net/DTD/sodipodi-0.dtd"
   xmlns="http://www.w3.org/2000/svg"
   xmlns:svg="http://www.w3.org/2000/svg">
  <defs
     id="defs9" />
  <sodipodi:namedview
     id="namedview9"
     pagecolor="#ffffff"
     bordercolor="#666666"
     borderopacity="1.0"
     inkscape:showpageshadow="2"
     inkscape:pageopacity="0.0"
     inkscape:pagecheckerboard="0"
     inkscape:deskcolor="#d1d1d1"
     inkscape:zoom="2.1599902"
     inkscape:cx="170.37114"
     inkscape:cy="174.53783"
     inkscape:window-width="1854"
     inkscape:window-height="1010"
     inkscape:window-x="0"
     inkscape:window-y="0"
     inkscape:window-maximized="1"
     inkscape:current-layer="svg9" />
  <g
     fill="#ff8080"
     stroke="#000"
     stroke-linecap="round"
     stroke-linejoin="round"
     stroke-width=".5"
     id="g9">
    <path
       id="path1"
       d="M 128.67773,13.742188 C 89.789576,38.342848 87.902137,95.387234 88.456044,130.61819 c 0.09296,5.91262 17.172676,-0.52147 16.530176,-7.32752 -1.68773,-17.87831 -3.13499,-85.575677 36.79674,-100.791205 9.75756,-3.718007 8.20096,41.098213 9.22656,52.627063 0.37897,4.260032 13.44898,14.532592 12.82451,-0.394196 -0.62447,-14.926788 3.7319,-85.590894 -35.15625,-60.990234 z m 4.46917,63.533018 c -24.72002,-0.13633 -21.30762,18.202352 -6.36495,14.931375 22.19098,-4.857645 52.47413,18.937609 62.24912,32.267949 9.775,13.33034 22.23294,30.84604 21.87656,14.59766 C 210.55125,122.82381 167.73259,77.465944 133.1469,77.275206 Z M 73.68321,96.216607 C 59.106724,105.0641 45.144714,153.41626 52.560068,182.01321 59.975421,210.61016 79.614311,206.52605 79.037109,205.79478 63.734624,189.00594 64.319149,133.75007 76.728338,118.01919 89.137527,102.28831 88.259699,87.369116 73.68321,96.216607 Z m 74.47518,17.572083 c -0.9298,20.22292 4.29713,24.08573 -7.97953,44.49511 -12.27667,20.40937 -0.17445,23.64823 11.08319,14.00974 11.25764,-9.63849 14.09157,-26.9251 14.61042,-49.45373 0.51885,-22.52863 -16.78428,-29.274035 -17.71408,-9.05112 z m -65.504313,53.52195 c 20.775443,-10.92386 11.350942,-21.8565 50.738343,-23.3247 7.82032,-0.29151 10.71414,-10.91091 6.83717,-15.18583 -10.60064,-11.68874 -49.909707,5.44337 -61.4639,21.26063 -3.770408,5.16154 -6.655494,22.79394 3.888387,17.2499 z m 90.797073,-30.13587 c -6.0493,-2.28447 -7.47946,15.5159 -1.73356,17.57163 50.14993,17.94229 53.9061,23.11142 61.0096,37.76328 7.1035,14.65186 10.71063,49.6322 -42.09647,24.92405 -4.38911,-2.05364 -18.82985,4.63919 -14.93386,7.52068 9.85018,7.28522 76.64014,28.64415 74.78071,-17.33355 -2.29974,-56.86525 -38.12009,-55.75344 -77.02642,-70.44609 z m -59.43357,16.06156 c -3.27195,-5.40502 -18.291799,6.22042 -14.194907,10.42516 15.802377,16.21838 22.668467,38.52646 42.953427,46.08884 20.28496,7.56238 23.19841,-5.95414 6.1493,-16.87036 -17.04911,-10.91622 -23.30727,-20.48039 -34.90782,-39.64364 z m -75.171877,14.55078 c -12.614803,8.00454 -57.10123,40.23131 -16.351487,61.6096 40.749743,21.37829 77.500071,0.136 101.108974,-24.75492 3.48953,-3.67903 -8.99303,-14.73173 -12.03029,-10.67129 -24.65447,32.95997 -79.663032,33.30898 -85.117635,16.67426 -5.454603,-16.63472 5.964343,-17.92551 16.974709,-27.32031 5.249378,-4.47913 8.030532,-23.54188 -4.584271,-15.53734 z m 155.966797,5.60286 c -2.91534,21.13388 -41.62831,48.5603 -66.81684,47.20183 -25.18853,-1.35847 -32.728238,12.10327 -23.73484,13.45351 35.88797,5.38806 95.71481,-16.46137 105.24191,-57.97059 1.11355,-4.8517 -14.05311,-7.30333 -14.69023,-2.68475 z"
       sodipodi:nodetypes="zsssszzzzzzzzzzzzzzzzzzssssssszsszssszzszzsszszszsss" />
  </g>
</svg>
