<?xml version="1.0" encoding="UTF-8" standalone="no"?>
<!-- Created with Inkscape (http://www.inkscape.org/) -->

<svg
   version="1.1"
   id="svg46178"
   width="256"
   height="256"
   viewBox="0 0 255.99999 256"
   sodipodi:docname="fitted_tshirt.svg"
   inkscape:version="1.1.1 (26b7af14f2, 2022-01-19)"
   xmlns:inkscape="http://www.inkscape.org/namespaces/inkscape"
   xmlns:sodipodi="http://sodipodi.sourceforge.net/DTD/sodipodi-0.dtd"
   xmlns="http://www.w3.org/2000/svg"
   xmlns:svg="http://www.w3.org/2000/svg">
  <defs
     id="defs46182">
    <clipPath
       clipPathUnits="userSpaceOnUse"
       id="clipPath50259">
      <path
         style="display:inline;fill:#767676;fill-opacity:1;stroke-width:0.32"
         d="M 82.157466,172.77295 C 76.446836,171.7103 69.81798,171.65127 63.52,170.40699 c -7.406974,-1.39205 -14.621472,-2.49423 -22.08,-3.67727 -6.168167,-1.00869 -12.371386,-2.38539 -18.095738,-3.99549 -5.871684,-1.13652 -10.157057,-2.43819 -7.96158,-9.59098 0.561945,-3.19229 0.84397,-8.78243 1.059597,-10.95147 0.484016,-3.02208 1.363444,-2.48998 1.760668,-4.71477 0.360148,-2.01714 -0.805536,-2.37717 -0.41928,-5.05242 2.811786,-6.92619 4.453677,-15.55962 6.870908,-22.6655 C 26.299784,102.1654 25.510491,94.262354 26.69908,86.5712 26.676412,79.449945 28.308438,71.100605 26.111729,64.683015 21.299797,70.129542 12.958281,65.868816 8.235874,62.330476 3.6761786,55.120318 9.8230501,46.287003 9.2412315,38.318499 9.681557,29.165813 13.615848,20.120554 21.081786,14.5445 28.142183,8.9792646 37.75156,8.8031673 46.08,6.0299014 c 5.230293,-3.331637 8.071275,-0.5996828 7.954883,5.2269906 3.484585,7.702509 13.183584,7.304178 20.350094,7.20355 6.621874,-1.089869 13.259176,-5.261686 14.39165,-12.3223201 9.221351,4.7046531 18.886603,8.9518541 28.360953,13.2959951 6.83696,3.09883 9.86766,10.541609 13.14664,16.785025 3.32383,8.286285 3.13475,17.400211 5.99701,25.857875 1.98759,5.489232 -0.0571,11.428824 -6.52128,12.802983 -4.95064,1.909028 -13.67065,6.343678 -17.55317,0.9442 -2.58794,6.601222 -3.86272,13.723592 -5.49517,20.577477 -2.54661,9.012053 -4.79274,18.306373 -6.36801,27.480373 0.36519,7.17751 5.12017,13.76144 2.65905,21.10676 -2.67902,6.56789 1.39375,13.86531 -1.07839,20.45119 -4.335972,5.85674 -12.11052,6.91486 -18.476527,6.79095 0.04606,1.16294 1.934538,0.79167 -1.290267,0.542 z"
         id="path50261"
         sodipodi:nodetypes="ccccccscccccccccccccccccccccc" />
    </clipPath>
  </defs>
  <sodipodi:namedview
     id="namedview46180"
     pagecolor="#ffffff"
     bordercolor="#666666"
     borderopacity="1.0"
     inkscape:pageshadow="2"
     inkscape:pageopacity="0.0"
     inkscape:pagecheckerboard="true"
     showgrid="false"
     inkscape:zoom="2.2715918"
     inkscape:cx="17.608797"
     inkscape:cy="130.96543"
     inkscape:window-width="1853"
     inkscape:window-height="1024"
     inkscape:window-x="67"
     inkscape:window-y="28"
     inkscape:window-maximized="1"
     inkscape:current-layer="g46184"
     inkscape:snap-global="false"
     fit-margin-top="0"
     fit-margin-left="0"
     fit-margin-right="0"
     fit-margin-bottom="0" />
  <g
     inkscape:groupmode="layer"
     id="layer4"
     inkscape:label="Image 2"
     style="display:inline"
     transform="translate(-6.2216588,-4.5008044)" />
  <g
     inkscape:groupmode="layer"
     id="layer5"
     inkscape:label="Image 3"
     transform="translate(-6.2216588,-4.5008044)">
    <path
       style="display:inline;fill:#afc6e9;fill-opacity:1;stroke:#000000;stroke-width:0.64;stroke-linecap:round;stroke-linejoin:round;stroke-miterlimit:4;stroke-dasharray:none;stroke-opacity:1"
       d="m 118.38941,48.513582 c 10.44543,6.933138 22.08948,9.658649 37.19287,1.490328 l -2.27163,26.296741 -35.33335,-0.509569"
       id="path13678"
       sodipodi:nodetypes="cccc" />
  </g>
  <g
     inkscape:groupmode="layer"
     inkscape:label="Image"
     id="g46184"
     transform="translate(-6.2216588,-4.5008044)">
    <path
       style="display:inline;fill:#d7e3f4;fill-opacity:1;stroke:#000000;stroke-width:0.64;stroke-miterlimit:4;stroke-dasharray:none;stroke-opacity:1"
       d="m 130.43343,213.9555 c -13.99077,-2.58614 -27.27192,-4.07482 -40.175738,-7.67276 -5.871684,-1.13652 -10.157057,-2.43819 -7.96158,-9.59098 0.561945,-3.19229 0.84397,-8.78243 1.059597,-10.95147 0.484016,-3.02208 1.363444,-2.48998 1.760668,-4.71477 0.360148,-2.01714 -0.805536,-2.37717 -0.41928,-5.05242 2.811786,-6.92619 4.453677,-15.55962 6.870908,-22.6655 1.645209,-7.59369 0.855916,-15.49674 2.044505,-23.18789 -0.02267,-7.12125 1.609358,-15.47059 -0.587351,-21.88818 -4.811932,5.44652 -13.153448,1.1858 -17.875855,-2.35254 -4.559695,-7.210162 1.587177,-16.043477 1.005358,-24.011981 0.440325,-9.152686 4.374616,-18.197945 11.840554,-23.773999 7.060397,-5.565235 16.669774,-5.741333 24.998214,-8.514598 2.49425,-1.051939 5.30432,-1.196304 5.30432,-1.196304 0,0 0.77837,2.848781 2.65056,6.423294 3.48459,7.702509 13.18359,7.304178 20.3501,7.20355 6.62187,-1.089869 13.25917,-5.261686 14.39165,-12.32232 9.22135,4.704653 18.8866,8.951854 28.36095,13.295995 6.83696,3.09883 9.86766,10.541609 13.14664,16.785025 3.32383,8.286285 3.13475,17.400211 5.99701,25.857878 1.98759,5.48923 -0.0571,11.42882 -6.52128,12.80298 -4.95064,1.90903 -13.67065,6.34368 -17.55317,0.9442 -2.58794,6.60122 -3.86272,13.72359 -5.49517,20.57748 -2.54661,9.01205 -4.79274,18.30637 -6.36801,27.48037 0.36519,7.17751 5.12017,13.76144 2.65905,21.10676 -2.67902,6.56789 1.39375,13.86531 -1.07839,20.45119 -11.21437,10.67234 -25.84579,7.35929 -38.40426,4.96699 z"
       id="path46567"
       sodipodi:nodetypes="ccccscccccccccccccccccccccc" />
    <path
       id="path48259"
       clip-path="url(#clipPath50259)"
       style="display:inline;opacity:1;fill:#afc6e9;stroke:none;stroke-width:0.32;stroke-opacity:1"
       d="m 86.916016,20.349609 c -0.205033,0.05735 -0.730741,0.366633 -1.927735,1.53125 -6.556704,3.268035 -13.139709,5.555593 -21.229404,4.230194 -3.091196,-0.506455 -12.427117,-7.12409 -8.784961,-2.135076 2.320719,3.401503 8.970163,2.910399 11.255139,5.458814 -1.803407,-0.117678 -9.089457,-2.478285 0.739695,1.383568 3.539205,0.923704 6.556431,0.252935 9.027344,-1.671875 1.074053,-2.650596 9.371952,-4.169529 10.980468,-8.755859 0.0366,0.01295 0.06407,-0.01749 0.05078,-0.03711 -0.01,-0.01471 -0.04298,-0.02303 -0.111328,-0.0039 z m -72.525391,10.65625 c 3.04424,6.523579 2.751792,12.668392 6.849611,18.273473 -2.987403,-0.652872 -6.348612,-6.147302 -8.501953,-9.244141 -0.219507,3.556018 6.035757,8.580748 8.722101,12.459031 0.496321,0.716539 3.179629,6.316144 3.179629,6.316144 2.425177,-33.802573 1.470159,-2.649732 -8.67712,-25.370878 -1.086681,-1.863844 -1.520695,-2.506708 -1.572266,-2.433594 z m -2.775391,11.314453 c 0.07684,4.68859 6.549247,9.611066 10.191407,13.400391 1.351586,2.174419 0.695454,3.376815 0.546875,5.726563 3.077867,2.274055 -4.76747,0.993527 -0.513672,4.46289 0.741578,0.290869 1.541135,0.290336 2.277344,0.08789 8.933026,2.854381 -12.393549,14.563428 13.300781,9.777344 8.768556,-2.117307 6.519531,-3.47461 6.519531,-3.47461 -5.318429,-1.821301 -9.37469,-3.139265 -12.679688,-4.984374 -2.246068,1.02181 -7.338189,-9.562927 -7.015711,-12.217229 0.180153,-1.894388 -1.76848,-3.032852 0.397912,3.711189 -2.526834,-7.542473 -9.684061,-9.479168 -13.024779,-16.490054 z m 109.583986,0.941407 c -3.53934,-0.663193 -7.46351,10.581397 -8.38281,8.357422 -3.00326,9.738749 -2.50173,-0.09513 -5.01935,-2.747037 0.39688,7.813924 2.29691,21.348205 -2.70137,22.677399 -12.06104,3.207397 -14.28617,2.842471 -13.571586,2.953673 0,0 4.41664,4.416131 6.734558,3.639089 3.364138,0.508288 5.756058,0.343145 10.813608,0.154611 1.35514,7.373097 1.6487,-5.377896 3.82226,-1.494141 -0.4335,-7.053729 -4.22618,-12.043085 1.56249,-16.851562 -5.05215,2.799109 -3.99089,-1.268296 -0.39648,-2.521484 0.14779,-3.393587 4.36333,-10.233474 7.13867,-14.167969 z M 10.384766,44.736328 c 0.08023,4.19354 0.767876,4.628355 4.271484,8.94336 4.224642,3.884275 -3.666706,-6.127637 -4.271484,-8.94336 z m -0.5000004,5.845703 c 0.4868874,1.952305 2.3181184,5.542476 4.5019524,5.978512 4.42519,1.566754 -4.050233,-3.398354 -2.935547,-4.214844 -0.943336,-1.394907 -1.424358,-1.859906 -1.5664064,-1.763672 z M 123.7832,52.871094 c -2.59252,1.220132 -8.36753,8.074748 -12.21875,11.289062 4.48439,-0.279754 8.71675,-7.736543 12.21875,-11.289062 z m -14.84179,27.464844 c -3.99679,6.855074 -10.549037,11.867946 -16.12891,17.634765 3.227445,-1.273287 6.267936,-4.239405 9.16797,-6.408203 2.97238,-3.953979 9.09197,-9.511715 6.96094,-11.226562 z m -2.76563,11.835937 c -1.09226,-0.426978 -6.14723,9.876005 -7.771483,12.921875 -2.337265,7.95088 -9.472324,12.31089 -14.244141,18.65039 4.856516,-3.47523 8.604024,-8.44049 12.720703,-12.64844 3.918351,-5.80818 5.478121,-12.86308 9.458981,-18.68945 -0.0354,-0.129174 -0.0912,-0.20591 -0.16406,-0.234375 z m -77.476561,4.65625 c -0.437789,0.345561 0.790579,6.672035 2.953125,8.710935 3.847739,7.66624 8.343171,15.43478 15.78125,20.22071 0.381577,1.66822 1.496155,-0.0606 0.501953,-0.30079 -7.280588,-7.32693 -13.598541,-15.58571 -17.736328,-25.09765 -0.702329,-2.323415 -1.154791,-3.342635 -1.390625,-3.519533 -0.04422,-0.03317 -0.08019,-0.03671 -0.109375,-0.01367 z m 10.199219,5.138675 c -2.372817,1.26091 7.695492,3.03313 10.0625,4.30078 1.635652,-1.07089 -7.828213,-3.36367 -10.0625,-4.30078 z m 11.658203,4.68164 c 3.17e-4,0.002 -1.55e-4,0.0104 0,0.0117 -4.51e-4,-0.003 -1.19e-4,-0.008 0,-0.0117 z m -25.904297,6.74414 c -0.279465,-0.17164 -0.169637,0.32887 0.61914,1.89258 2.894857,5.02971 5.021845,10.66639 8.007813,15.83398 -0.0019,-1.72559 -2.268632,-5.98311 -3.429688,-8.67187 -0.0182,-1.98343 -4.35887,-8.53978 -5.197265,-9.05469 z m 36.269531,8.29492 c -1.374582,0.0406 -2.654544,0.2389 -3.515625,0.65234 -4.905198,1.81345 6.781115,0.88603 9.738281,1.65821 2.882346,-1.1373 -2.098911,-2.43236 -6.222656,-2.31055 z m -38.341797,2.39258 c -0.411598,-0.0903 -0.283293,0.6287 1.259766,3.0293 3.166518,1.28183 -0.35425,-2.83061 -1.259766,-3.0293 z m -0.646484,0.10547 c -0.0222,-0.0683 -0.05522,0.0691 -0.09961,0.61523 0.133176,1.6384 0.166197,-0.41043 0.09961,-0.61523 z m 15.412109,2.52929 c 3.974903,4.7611 10.231622,4.86334 15.744141,6.37891 1.61549,1.20344 4.95381,-0.39511 2.453125,-0.85352 -4.75022,-3.84156 -12.460932,-2.77279 -18.197266,-5.52539 z m -13.826172,4.15625 c -3.001199,2.24932 7.001887,4.78623 8.777344,7.77149 5.545642,3.48522 9.605322,9.17428 15.921875,11.11133 0.317691,-0.0446 2.45259,0.77211 2.179688,0.01 -6.154154,-3.63228 -11.106315,-8.69341 -16.306641,-13.44336 -3.6529,-2.1821 -7.091034,-5.65433 -10.572266,-5.44922 z m 69.689453,0.53516 c -2.670326,-0.0946 -6.092156,0.52544 -8.076172,1.07422 -8.694592,1.81576 8.287751,0.5482 1.267579,4.21484 3.41279,-1.25345 6.477717,-3.96501 10.330078,-4.17773 -0.587203,-0.74061 -1.919289,-1.05456 -3.521485,-1.11133 z m 7.910156,0.55664 c -3.641215,-0.02 -8.435887,6.63472 -12.349609,8.75 0.655984,0.59855 1.67765,0.12493 2.410157,0.14453 5.003613,-0.62126 8.826992,-2.73499 8.958982,-6.13672 0.39141,1.10413 2.53018,-1.22833 0.98047,-2.75781 z m -12.068359,2.43555 c 0.0511,-0.0179 0.126318,0.0186 0.228516,0.16211 -0.306593,0.43049 -0.381812,-0.1083 -0.228516,-0.16211 z m -16.77539,0.29101 c -0.515723,-0.015 -1.061679,-0.01 -1.640625,0.0176 -6.52859,0.18734 -0.02817,0.7465 0.93164,2.80859 1.500384,1.34747 7.188982,2.50494 10.681641,3.57813 4.248406,0.70546 -1.140903,-2.80917 -2.294922,-2.97461 -1.919759,-2.18885 -4.067679,-3.32491 -7.677734,-3.42969 z m 6.240234,0.11133 c -0.0012,7.6e-4 -0.0027,7e-5 -0.0039,0.002 0.0066,0.006 0.01296,0.0118 0.01953,0.0176 -0.0039,-0.005 -0.0057,-0.009 -0.0098,-0.0137 -0.0013,-0.002 -0.0042,-0.004 -0.0059,-0.006 z m 0.128906,0.16797 c -0.02999,0.0108 -0.06945,0.0254 -0.101562,0.0371 0.05414,0.0282 0.09302,0.0282 0.11914,-0.01 -0.0056,-0.009 -0.0112,-0.0178 -0.01758,-0.0273 z m -8.474609,0.70898 c 0.0511,-0.0179 0.128271,0.0186 0.230469,0.16211 -0.306594,0.4305 -0.383766,-0.10829 -0.230469,-0.16211 z m -50.015625,0.34766 c -3.667223,0.41785 3.529995,3.34308 5.46875,7.10352 2.859474,1.0195 -4.775542,-6.02699 -5.46875,-7.10352 z m 50.794922,1.25391 c -0.0018,-6.3e-4 -0.006,0.006 -0.0078,0.006 0.0051,0.006 0.01054,0.01 0.01563,0.0156 0.0112,0.0128 0.01694,0.0196 0.02734,0.0312 -0.01191,-0.0184 -0.0164,-0.0462 -0.03516,-0.0527 z m 29.193361,0.75 c -0.0797,0.0722 -0.13818,0.13632 -0.150392,0.18554 0.115552,0.0518 0.170292,-0.0737 0.150392,-0.18554 z m -4.714846,5.17968 c -2.976389,0.0256 -7.606986,2.18914 -10.142578,2.97852 -5.353885,2.29888 -11.885582,3.88283 -15.482422,7.32422 1.528356,0.36716 6.735581,-0.21369 8.585938,-1.90234 6.476981,-2.19874 12.633887,-5.6971 19.324219,-7.58399 -0.48591,-0.59635 -1.293027,-0.825 -2.285157,-0.81641 z m -60.095703,6.76758 c -0.61361,0.0688 0.0021,1.54907 1.867188,3.04102 3.029414,4.34259 6.677729,9.15783 12.240234,11.19726 0.267711,0.0361 0.545077,0.0672 0.816406,0.0996 7.459583,-0.86726 14.946372,-0.51603 22.357422,-0.88672 6.731815,-0.0188 1.351403,-1.63165 -2.412109,-1.25 -4.883191,1.08242 -10.110298,-4.28563 -2.138672,-3.49609 2.324503,-1.70635 8.730976,0.91138 4.189453,-2.18164 -6.957767,-1.20261 -12.787244,3.39252 -18.945312,4.18359 -1.432419,0.48728 -3.611127,-0.096 -5.07036,-0.49223 -4.645976,-1.53386 -7.327409,-5.92273 -10.47648,-8.51177 -1.249418,-1.27827 -2.059569,-1.74443 -2.427735,-1.70313 z m -18.421875,3.85742 c -3.787261,0.42911 5.699172,3.43697 7.873047,3.32227 2.54714,-1.70554 -6.788287,-1.09845 -7.873047,-3.32227 z m 84.910154,2.08399 c -0.97884,0.0151 -5.109102,4.01143 -7.263669,5.32617 2.522323,1.39523 5.887419,-1.46384 7.001949,-3.76758 0.56382,-1.12642 0.588,-1.56363 0.26172,-1.55859 z m -85.857419,0.57812 c -1.118229,0.20801 1.246731,2.91227 2.599609,2.91602 l 0.513672,0.0801 c 6.19551,0.74272 3.00874,-1.33 -0.666016,-2.17969 -1.312992,-0.67782 -2.074522,-0.88574 -2.447265,-0.81641 z"
       sodipodi:nodetypes="scsccccccsscccscccccccccccccccsccsccccccssccccccsccccccccccccccsccccsssccccccscccssccsscsscscccccccccccscccsccccccccsccccssccccccccccccccccccccccccccccccccccccccccccccccccsccsscccss"
       transform="translate(66.91343,43.54851)" />
  </g>
  <g
     inkscape:groupmode="layer"
     id="layer3"
     inkscape:label="Image 1"
     transform="translate(-6.2216588,-4.5008044)">
    <path
       d="m 113.82666,49.44566 c 0,0 2.03881,5.718404 3.911,9.292917 3.48459,7.702509 16.19462,8.054844 23.36113,7.954216 6.83199,-0.178387 17.60855,-6.384371 18.44477,-14.730184"
       style="display:inline;fill:none;fill-opacity:1;stroke:#5f8dd3;stroke-width:0.64;stroke-miterlimit:4;stroke-dasharray:none;stroke-opacity:1"
       id="path13115"
       sodipodi:nodetypes="cccc" />
    <path
       style="display:inline;fill:none;stroke:#000000;stroke-width:0.6;stroke-linecap:round;stroke-linejoin:miter;stroke-miterlimit:4;stroke-dasharray:none;stroke-opacity:1"
       d="m 92.900112,108.95051 -1.759249,-6.44436 -0.824766,-6.240623"
       id="path14127"
       sodipodi:nodetypes="ccc" />
    <path
       style="display:inline;fill:none;stroke:#000000;stroke-width:0.6;stroke-linecap:round;stroke-linejoin:miter;stroke-miterlimit:4;stroke-dasharray:none;stroke-opacity:1"
       d="m 178.88237,119.84446 c -0.39236,-2.90965 -1.04957,-5.94026 -1.80058,-9.29286"
       id="path14456"
       sodipodi:nodetypes="cc" />
  </g>
</svg>
