<?xml version="1.0" encoding="UTF-8" standalone="no"?>
<!-- Created with Inkscape (http://www.inkscape.org/) -->

<svg
   version="1.1"
   id="svg46178"
   viewBox="0 0 255.99999 256"
   sodipodi:docname="fitted_tshirt.svg"
   inkscape:version="1.1.1 (26b7af14f2, 2022-01-19)"
   xmlns:inkscape="http://www.inkscape.org/namespaces/inkscape"
   xmlns:sodipodi="http://sodipodi.sourceforge.net/DTD/sodipodi-0.dtd"
   xmlns="http://www.w3.org/2000/svg"
   xmlns:svg="http://www.w3.org/2000/svg">
  <defs
     id="defs46182">
    <linearGradient
       id="linearGradient947"
       inkscape:swatch="solid">
      <stop
         style="stop-color:#5f8dd3;stop-opacity:1;"
         offset="0"
         id="stop945" />
    </linearGradient>
    <clipPath
       clipPathUnits="userSpaceOnUse"
       id="clipPath2621">
      <path
         style="display:inline;fill:#ff8080;fill-opacity:1;stroke:#000000;stroke-width:0.64;stroke-miterlimit:4;stroke-dasharray:none;stroke-opacity:1"
         d="m 57.180261,168.91751 c -13.990763,-2.58615 -17.583877,-2.4868 -30.487695,-6.08474 -5.871684,-1.13652 -10.157057,-2.43819 -7.96158,-9.59098 0.561945,-3.19229 0.84397,-8.78243 1.059597,-10.95147 0.484017,-3.02208 1.363445,-2.48998 1.760668,-4.71477 0.360148,-2.01714 -0.805535,-2.37717 -0.41928,-5.05242 2.811786,-6.92619 1.105372,-15.65816 3.522603,-22.76404 C 26.299783,102.1654 25.51049,94.262352 26.699079,86.5712 26.676406,79.449951 28.308437,71.100611 26.111728,64.683021 21.299796,70.129544 12.958281,65.86882 8.2358735,62.330481 3.6761785,55.120318 9.8230503,46.287003 9.2412314,38.318499 9.6815563,29.165813 13.615847,20.120554 21.081785,14.544501 28.142182,8.9792653 37.751559,8.8031679 46.08,6.0299025 c 2.494246,-1.051939 5.304316,-1.1963039 5.304316,-1.1963039 0,0 0.77837,2.8487808 2.650563,6.4232944 3.484588,7.702508 13.183589,7.304177 20.350096,7.203549 6.621869,-1.089869 13.259168,-5.261686 14.391644,-12.3223196 9.221357,4.7046536 18.886601,8.9518536 28.360961,13.2959946 6.83695,3.09883 9.86765,10.541609 13.14663,16.785025 3.32383,8.286285 3.13475,17.40021 5.99701,25.857876 1.98759,5.489234 -0.0571,11.428822 -6.52128,12.802987 -4.95064,1.909031 -13.67065,6.343677 -17.55317,0.944196 -2.58794,6.601224 -3.86272,13.723591 -5.49517,20.57748 -2.54661,9.012049 -0.0962,13.474279 -1.67145,22.648279 0.36519,7.17751 4.72648,16.3103 2.26536,23.65562 -2.67902,6.56789 1.39375,13.86531 -1.07839,20.45119 -11.214366,10.67234 -36.488383,8.15304 -49.046859,5.76074 z"
         id="path2623"
         sodipodi:nodetypes="ccccscccccccccccccccccccccc" />
    </clipPath>
  </defs>
  <sodipodi:namedview
     id="namedview46180"
     pagecolor="#393939"
     bordercolor="#666666"
     borderopacity="1.0"
     inkscape:pageshadow="2"
     inkscape:pageopacity="0"
     inkscape:pagecheckerboard="false"
     showgrid="false"
     inkscape:zoom="1.7795422"
     inkscape:cx="80.919689"
     inkscape:cy="128.96575"
     inkscape:window-width="1853"
     inkscape:window-height="1024"
     inkscape:window-x="67"
     inkscape:window-y="28"
     inkscape:window-maximized="1"
     inkscape:current-layer="layer3"
     inkscape:snap-global="false"
     fit-margin-top="0"
     fit-margin-left="0"
     fit-margin-right="0"
     fit-margin-bottom="0" />
  <g
     inkscape:groupmode="layer"
     id="layer5"
     inkscape:label="Image 3"
     transform="translate(-6.2216588,-4.5008044)">
    <path
       style="display:inline;fill:#ff5555;fill-opacity:1;stroke:#000000;stroke-width:0.881003;stroke-linecap:round;stroke-linejoin:round;stroke-miterlimit:4;stroke-dasharray:none;stroke-opacity:1"
       d="m 111.65849,16.689951 c 14.37884,9.543932 30.40766,13.295782 51.19849,2.051537 l -3.12705,36.199238 -48.63874,-0.701456"
       id="path13678"
       sodipodi:nodetypes="cccc" />
  </g>
  <g
     inkscape:groupmode="layer"
     inkscape:label="Image"
     id="g46184"
     transform="translate(-6.2216588,-4.5008044)"
     style="display:inline">
    <path
       style="display:inline;fill:#ff8080;fill-opacity:1;stroke:#000000;stroke-width:0.881003;stroke-miterlimit:4;stroke-dasharray:none;stroke-opacity:1"
       d="m 119.51082,242.38154 c -19.25923,-3.56 -24.205395,-3.42324 -41.968371,-8.37605 -8.082769,-1.5645 -13.981874,-3.35633 -10.959652,-13.20263 0.773555,-4.39441 1.161782,-12.08961 1.458607,-15.07544 0.666281,-4.1601 1.876873,-3.42763 2.423678,-6.4902 0.495768,-2.77673 -1.108874,-3.27233 -0.577167,-6.955 3.870613,-9.53436 1.521619,-21.55451 4.8491,-31.33624 2.264742,-10.45322 1.178227,-21.3323 2.814399,-31.91969 -0.03121,-9.80288 2.21539,-21.29631 -0.808528,-30.130552 -6.623949,7.497502 -18.106608,1.632332 -24.60732,-3.23843 -6.276728,-9.925277 2.184856,-22.084931 1.383943,-33.054115 0.606137,-12.599289 6.021954,-25.050699 16.299321,-32.726513 9.719113,-7.660922 22.947069,-7.903332 34.41173,-11.720919 3.4335,-1.448065 7.30175,-1.646793 7.30175,-1.646793 0,0 1.07148,3.921539 3.64868,8.842098 4.79677,10.603023 18.1481,10.054693 28.01328,9.916172 9.11545,-1.500278 18.25214,-7.243066 19.81107,-16.962505 12.69382,6.476273 25.99868,12.322831 39.04077,18.302834 9.41153,4.265749 13.5835,14.511236 18.09723,23.10572 4.57548,11.40663 4.3152,23.952564 8.25529,35.595111 2.73605,7.556302 -0.0786,15.732542 -8.97698,17.624172 -6.81489,2.62791 -18.81857,8.7325 -24.16312,1.29975 -3.56248,9.08703 -5.3173,18.89145 -7.56448,28.32629 -3.50558,12.40569 -0.1324,18.54825 -2.30086,31.17688 0.50271,9.88033 6.50632,22.45223 3.11842,32.56356 -3.68785,9.04114 1.91859,19.08654 -1.48448,28.15244 -15.43733,14.6912 -50.22872,11.22321 -67.51631,7.93005 z"
       id="path46567"
       sodipodi:nodetypes="ccccscccccccccccccccccccccc" />
    <path
       id="path48259"
       clip-path="url(#clipPath2621)"
       style="display:inline;opacity:1;fill:#ff5555;stroke:none;stroke-width:0.32;stroke-opacity:1"
       transform="matrix(1.3765675,0,0,1.3765675,40.79833,9.8551936)"
       d="m 86.916016,20.349609 c -6.86226,4.918209 -16.223476,7.590904 -24.571514,5.319667 -2.214299,-1.167869 -11.517116,-6.156482 -6.314386,-0.586662 2.367381,2.048694 9.907759,2.645373 9.309799,4.219444 -21.021086,-4.680799 5.094769,4.031096 7.647209,1.462836 4.343464,-3.708248 10.950564,-5.286301 14.040218,-10.411379 l -0.111328,-0.0039 z m -72.525391,10.65625 c 1.760987,5.311948 5.350078,15.67356 5.714902,17.815837 -3.036442,-0.965533 -6.862154,-9.644473 -7.165671,-7.38926 2.611668,5.853019 8.918045,10.183612 10.927668,16.443612 1.836912,4.15836 0.846189,-6.846352 1.512132,-8.928951 0.222721,-3.761331 1.865538,-8.706783 -3.439039,-6.711413 -3.93758,-2.585303 -4.836347,-7.683492 -7.549992,-11.229825 z m 8.252015,27.512377 c -0.533469,2.802457 0.991937,7.347078 -2.379638,8.448472 1.500084,2.854883 9.11169,-0.790328 5.21341,4.641273 -4.547806,8.120646 8.599274,4.780245 12.731736,3.971156 2.944127,-0.136163 9.328369,-3.494806 2.867487,-4.256545 -4.755818,-2.236048 -11.148154,-2.580984 -13.708295,-7.693726 -2.197215,-2.128017 -2.795074,-8.87059 -3.757755,-9.45593 0.0075,2.324481 2.006812,6.802696 -0.117687,2.050914 -0.01218,-8.951047 -4.110442,-10.043409 -0.849258,2.294386 z m 98.55658,-15.256517 c -5.04986,2.33253 -7.58109,8.253221 -10.08004,12.409657 -1.84508,-0.798413 -3.41344,-10.82755 -3.30393,-3.594219 -0.49423,6.629633 -1.03043,13.940213 -5.26576,19.365574 -4.499221,3.004984 -13.038433,2.819893 -16.632868,3.458727 3.3438,6.016885 12.127,6.619685 12.709463,13.855397 2.602825,10.797851 3.034315,22.059965 6.084045,32.730665 6.30174,3.05811 11.91007,-3.19008 11.88554,-9.2789 1.85044,-14.820944 -3.3533,-29.167304 -5.25485,-43.661374 -2.48741,-3.515652 6.07417,-10.409201 0.41741,-7.632951 -1.72541,-2.308231 3.98228,-4.048876 3.4645,-7.481914 1.61337,-3.593832 3.73263,-6.942031 5.97649,-10.170662 z m -12.25781,37.074219 c -4.08073,6.958775 -10.604824,11.910142 -16.12891,17.634765 6.878359,-3.413991 12.37041,-9.240327 16.35828,-15.713192 0.29034,-0.574387 0.35546,-1.488872 -0.22937,-1.921573 z m -2.76563,11.835937 c -4.56196,5.0989 -7.312086,11.882225 -9.7216,18.298785 -1.291248,4.21299 -7.750571,11.63644 -7.659134,12.60496 4.249448,-4.72993 6.603103,-10.85529 10.430979,-15.93255 1.657645,-5.29717 6.128515,-9.647556 6.949755,-14.971195 z m -77.476561,4.65625 c 0.06479,6.441305 4.636925,11.601595 8.276657,16.527705 4.112828,4.79277 8.944497,8.96292 14.237091,12.40394 1.800785,-0.05 -6.545465,-6.6757 -8.414208,-8.95365 -5.856497,-5.69264 -11.401107,-12.10113 -13.990165,-19.964323 l -0.109375,-0.01367 z m 10.199219,5.138675 c 0.859975,2.45981 8.034043,3.44697 10.191379,3.84695 -3.012124,-2.0505 -6.847726,-2.49108 -10.191379,-3.84695 z m 11.658203,4.68164 v 0.0117 z m -25.904297,6.74414 c 2.099119,6.19611 8.36752,10.94502 11.813682,16.7524 1.389283,0.89731 -2.478344,-6.96942 -3.600368,-9.22572 -2.36636,-2.86973 -5.270589,-5.27322 -8.213314,-7.52668 z m 40.048904,8.29492 c -2.861856,-0.4048 -7.07761,2.33445 -1.594871,1.87192 2.18792,0.0904 12.53532,0.96048 6.135944,-1.49425 -1.493656,-0.29331 -3.01991,-0.4174 -4.541073,-0.37767 z m -23.576172,5.02734 c 4.62532,4.9808 12.28112,5.8086 18.514269,6.57534 -1.934602,-4.66262 -12.310609,-3.85024 -17.416774,-6.10188 z m -13.826172,4.15625 c 0.424284,4.78257 9.697971,6.24462 12.716439,10.70556 4.092428,3.25489 8.867175,8.66942 14.162468,8.18726 -9.360656,-5.1348 -15.379944,-15.13202 -25.574962,-18.80682 l -1.303945,-0.0858 z m 69.689453,0.53516 c -2.274733,0.005 -11.069856,0.73644 -9.644946,2.23897 1.949712,-0.0676 6.972625,1.35853 2.836353,3.05009 2.77422,-1.70293 8.738944,-3.68311 9.757428,-4.65584 -0.898793,-0.49347 -1.947193,-0.58259 -2.948835,-0.63322 z m -4.439453,9.30664 c 6.131077,1.26167 11.682226,-3.21132 13.067296,-8.98308 -4.85031,1.55682 -8.814299,6.05049 -13.067296,8.98308 z m -16.49414,-6.02344 c -3.275811,-0.49182 -6.248026,0.53628 -1.292361,2.12115 3.113029,2.48604 9.784557,4.55887 12.710147,3.69562 -2.605164,-4.29785 -9.832049,-1.86366 -11.417786,-5.81677 z m -2.105469,0.98828 c 0.682595,0.14347 -0.385509,0.60482 0,0 z m -50.015625,0.34766 c -2.494915,1.23945 6.10942,6.75772 5.918081,6.57508 -1.713145,-2.41387 -4.030901,-4.30981 -5.918081,-6.57508 z m 50.794922,1.25391 c -0.02467,0.0144 0.112534,0.12006 0,0 z m 24.478515,5.92968 c -7.477634,1.34904 -14.479882,4.7449 -21.51865,7.54211 -3.754563,1.45172 -5.133044,4.00859 0.06587,2.58039 8.058747,-2.53322 15.557537,-6.91371 23.737933,-9.30609 l -0.95274,-0.63506 z m -60.095703,6.76758 c 2.450284,4.83286 6.93928,10.36765 12.10868,13.34972 7.984354,1.83129 16.840468,-0.36876 25.17257,0.10144 7.533412,-0.78708 -3.477388,-1.34284 -5.927383,-1.45065 -8.779563,-4.68291 8.414165,-2.56077 6.292963,-4.96161 -7.531504,-2.84968 -14.577755,4.33054 -22.197345,3.75332 -7.001654,-0.50477 -9.971178,-7.73235 -15.449485,-10.79222 z m -18.421875,3.85742 c -2.635569,2.60672 13.857924,4.19447 5.298486,1.85549 -1.780331,-0.40398 -4.031198,-0.32521 -5.298486,-1.85549 z m 84.910151,2.08399 c -2.98584,1.37984 -10.704792,7.80421 -3.23477,4.82949 1.35692,-0.97531 3.72235,-3.13528 3.23477,-4.82949 z m -85.857416,0.57812 c -0.537142,3.9242 10.961082,3.78301 3.785052,1.18451 -1.199985,-0.45051 -2.668806,-0.65916 -3.785052,-1.18451 z"
       sodipodi:nodetypes="sccccccscccccccccccccccccccccccccccccccccccccscccccsccccccccccccccccccccccccccccccccccccccccccccccccccccccccccccccccc" />
    <path
       style="display:inline;fill:none;fill-opacity:1;stroke:#000000;stroke-width:0.881003;stroke-miterlimit:4;stroke-dasharray:none;stroke-opacity:1"
       d="m 119.51082,242.38154 c -19.25923,-3.56 -24.205395,-3.42324 -41.968371,-8.37605 -8.082769,-1.5645 -13.981874,-3.35633 -10.959652,-13.20263 0.773555,-4.39441 1.161782,-12.08961 1.458607,-15.07544 0.666281,-4.1601 1.876873,-3.42763 2.423678,-6.4902 0.495768,-2.77673 -1.108874,-3.27233 -0.577167,-6.955 3.870613,-9.53436 1.521619,-21.55451 4.8491,-31.33624 2.264742,-10.45322 1.178227,-21.3323 2.814399,-31.91969 -0.03121,-9.80288 2.21539,-21.29631 -0.808528,-30.130552 -6.623949,7.497502 -18.106608,1.632332 -24.60732,-3.23843 -6.276728,-9.925277 2.184856,-22.084931 1.383943,-33.054115 0.606137,-12.599289 6.021954,-25.050699 16.299321,-32.726513 9.719113,-7.660922 22.947069,-7.903332 34.41173,-11.720919 3.4335,-1.448065 7.30175,-1.646793 7.30175,-1.646793 0,0 1.07148,3.921539 3.64868,8.842098 4.79677,10.603023 18.1481,10.054693 28.01328,9.916172 9.11545,-1.500278 18.25214,-7.243066 19.81107,-16.962505 12.69382,6.476273 25.99868,12.322831 39.04077,18.302834 9.41153,4.265749 13.5835,14.511236 18.09723,23.10572 4.57548,11.40663 4.3152,23.952564 8.25529,35.595111 2.73605,7.556302 -0.0786,15.732542 -8.97698,17.624172 -6.81489,2.62791 -18.81857,8.7325 -24.16312,1.29975 -3.56248,9.08703 -5.3173,18.89145 -7.56448,28.32629 -3.50558,12.40569 -0.1324,18.54825 -2.30086,31.17688 0.50271,9.88033 6.50632,22.45223 3.11842,32.56356 -3.68785,9.04114 1.91859,19.08654 -1.48448,28.15244 -15.43733,14.6912 -50.22872,11.22321 -67.51631,7.93005 z"
       id="path833"
       sodipodi:nodetypes="ccccscccccccccccccccccccccc" />
  </g>
  <g
     inkscape:groupmode="layer"
     id="layer3"
     inkscape:label="Image 1"
     transform="translate(-6.2216588,-4.5008044)"
     style="display:inline">
    <path
       d="m 105.37756,17.973019 c 0,0 2.80656,7.871769 5.38375,12.792327 4.79677,10.603024 22.29299,11.088036 32.15817,10.949515 9.40469,-0.245562 24.23935,-8.788517 25.39047,-20.277092"
       style="display:inline;fill:none;fill-opacity:1;stroke:#ff2a2a;stroke-width:0.881003;stroke-miterlimit:4;stroke-dasharray:none;stroke-opacity:1"
       id="path13115"
       sodipodi:nodetypes="cccc" />
    <path
       style="display:inline;fill:none;stroke:#000000;stroke-width:0.82594;stroke-linecap:round;stroke-linejoin:miter;stroke-miterlimit:4;stroke-dasharray:none;stroke-opacity:1"
       d="M 76.570751,99.885458 74.149026,91.014363 73.01368,82.423725"
       id="path14127"
       sodipodi:nodetypes="ccc" />
    <path
       style="display:inline;fill:none;stroke:#000000;stroke-width:0.82594;stroke-linecap:round;stroke-linejoin:miter;stroke-miterlimit:4;stroke-dasharray:none;stroke-opacity:1"
       d="m 194.93112,114.88172 c -0.54011,-4.00533 -1.4448,-8.17717 -2.47862,-12.79225"
       id="path14456"
       sodipodi:nodetypes="cc" />
  </g>
</svg>
