<?xml version="1.0" encoding="UTF-8" standalone="no"?>
<!-- Created with Inkscape (http://www.inkscape.org/) -->

<svg
   version="1.1"
   id="svg46178"
   viewBox="0 0 255.99999 256"
   sodipodi:docname="fitted_tank_top.svg"
   inkscape:version="1.1.1 (26b7af14f2, 2022-01-19)"
   xmlns:inkscape="http://www.inkscape.org/namespaces/inkscape"
   xmlns:sodipodi="http://sodipodi.sourceforge.net/DTD/sodipodi-0.dtd"
   xmlns="http://www.w3.org/2000/svg"
   xmlns:svg="http://www.w3.org/2000/svg">
  <defs
     id="defs46182">
    <linearGradient
       id="linearGradient16292"
       inkscape:swatch="solid">
      <stop
         style="stop-color:#ff8080;stop-opacity:1;"
         offset="0"
         id="stop16290" />
    </linearGradient>
    <linearGradient
       id="linearGradient947"
       inkscape:swatch="solid">
      <stop
         style="stop-color:#5f8dd3;stop-opacity:1;"
         offset="0"
         id="stop945" />
    </linearGradient>
    <clipPath
       clipPathUnits="userSpaceOnUse"
       id="clipPath17348">
      <path
         style="display:inline;fill:#ff8080;fill-opacity:1;stroke:#000000;stroke-width:0.64;stroke-miterlimit:4;stroke-dasharray:none;stroke-opacity:1"
         d="m 57.180263,168.91752 c -13.990758,-2.58615 -17.583877,-2.48679 -30.487697,-6.08474 -5.871684,-1.13653 -10.157057,-2.43818 -7.961579,-9.59098 0.561944,-3.19229 0.843969,-8.78243 1.059595,-10.95147 0.484018,-3.02208 1.363445,-2.48998 1.760668,-4.71478 0.360148,-2.01713 -0.805534,-2.37716 -0.419279,-5.05242 2.811786,-6.92618 1.105373,-15.65816 3.522603,-22.76404 1.645209,-7.59368 0.855917,-15.496738 2.044505,-23.187891 -0.02267,-7.121243 1.609357,-15.470575 -0.587351,-21.88817 -1.74676,-6.193265 -2.444302,-9.181026 -1.882322,-14.339491 10.099083,-6.61275 12.078596,-25.53666 20.735192,-44.5706679 3.146854,-0.5614758 3.464815,-0.8444433 6.419719,-0.9392702 0,0 -14.608432,32.6591281 -8.607526,42.8907901 5.986599,10.207272 39.715928,14.127657 47.482309,4.961507 7.267551,-8.577416 -2.614955,-39.487139 -1.482479,-46.5477739 1.823403,0.6402152 5.334689,2.3800635 7.631195,3.3470257 2.993868,19.1294942 4.801834,53.1341652 19.741844,55.7613532 -2.58794,6.601216 -7.8056,24.301303 -9.43805,31.155192 -2.54662,9.012036 -0.0962,13.474266 -1.67146,22.648266 0.3652,7.17751 4.72648,16.31031 2.26537,23.65563 -2.67903,6.56789 1.39375,13.8653 -1.07839,20.45119 -11.214372,10.67234 -36.488394,8.15304 -49.046867,5.76074 z"
         id="path17350"
         sodipodi:nodetypes="ccccscccccccsscccccccc"
         inkscape:label="base" />
    </clipPath>
  </defs>
  <sodipodi:namedview
     id="namedview46180"
     pagecolor="#393939"
     bordercolor="#666666"
     borderopacity="1.0"
     inkscape:pageshadow="2"
     inkscape:pageopacity="0"
     inkscape:pagecheckerboard="false"
     showgrid="false"
     inkscape:zoom="3.5590844"
     inkscape:cx="109.43826"
     inkscape:cy="97.075529"
     inkscape:window-width="1853"
     inkscape:window-height="1024"
     inkscape:window-x="67"
     inkscape:window-y="28"
     inkscape:window-maximized="1"
     inkscape:current-layer="g46184"
     inkscape:snap-global="false"
     fit-margin-top="0"
     fit-margin-left="0"
     fit-margin-right="0"
     fit-margin-bottom="0" />
  <g
     inkscape:groupmode="layer"
     id="layer2"
     inkscape:label="Image 1">
    <path
       style="display:none;fill:none;fill-opacity:1;stroke:#000000;stroke-width:0.881003;stroke-miterlimit:4;stroke-dasharray:none;stroke-opacity:1"
       d="m 128.89628,243.21259 c -19.48957,-1.93595 -24.40695,-1.38577 -42.522072,-4.83485 -8.185336,-0.88267 -14.213688,-2.17458 -12.025982,-12.23925 0.403127,-4.44372 0.146074,-12.14442 0.19201,-15.14461 0.315837,-4.20127 1.583474,-3.57266 1.872091,-6.67026 0.261679,-2.80847 -1.378804,-3.16806 -1.157121,-6.88231 3.059224,-9.8248 -0.287352,-21.60624 2.209944,-31.6321 1.382097,-10.60606 -0.610946,-21.35608 0.133558,-32.04325 -0.851387,-9.76588 0.425591,-21.40698 -3.326952,-29.95721 C 71.162265,95.514409 69.861264,91.496328 70.037961,84.355524 83.129562,74.121257 81.015443,51.955406 83.655234,24.379219 c 5.623935,-1.954502 14.595325,-4.45167 18.389986,-5.579405 0,0 1.39586,3.818127 4.37577,8.505774 5.66719,10.164453 18.92581,8.500834 28.74481,7.537303 8.95794,-2.257779 17.58203,-8.744963 18.32219,-18.560763 13.19123,5.391369 9.87887,3.890616 23.37562,8.758311 -1.76098,48.25474 0.18523,67.287037 20.98165,69.169942 -2.7896,9.353249 -7.90803,34.234169 -9.35784,43.823959 -2.45521,12.65551 1.4201,18.49427 0.31601,31.26006 1.32772,9.80361 8.36226,21.82906 5.83234,32.18841 -2.91838,9.31803 3.50898,18.85905 0.87647,28.17793 -14.15387,15.93143 -49.11344,15.38688 -66.61596,13.55185 z"
       id="path8619"
       sodipodi:nodetypes="ccccsccccccccccccccccc"
       inkscape:label="outline"
       transform="translate(-6.2216588,-4.5008044)" />
    <path
       style="display:none;fill:#ff8080;fill-opacity:1;stroke:#000000;stroke-width:0.881003;stroke-miterlimit:4;stroke-dasharray:none;stroke-opacity:1"
       d="m 128.89628,243.21259 c -19.48958,-1.93596 -24.40696,-1.38579 -42.522074,-4.83486 -8.185335,-0.88266 -14.213688,-2.17459 -12.025982,-12.23925 0.403128,-4.44372 0.146075,-12.14442 0.192011,-15.14461 0.315838,-4.20126 1.583475,-3.57266 1.872092,-6.67025 0.261679,-2.80847 -1.378806,-3.16807 -1.157122,-6.88231 3.059223,-9.82481 -0.287352,-21.60624 2.209945,-31.63209 1.382095,-10.60608 -0.610947,-21.35609 0.133558,-32.04325 -0.851386,-9.76589 0.42559,-21.407 -3.326953,-29.95723 -3.10949,-8.294337 -4.410491,-12.312416 -4.233794,-19.45322 13.091599,-10.234266 4.876832,-30.126206 7.516623,-57.702391 11.277576,-3.673614 6.247289,-0.837768 17.352293,-5.601304 3.300285,-1.730294 7.138343,-2.252012 7.138343,-2.252012 0,0 1.39586,3.818126 4.37577,8.505773 5.66718,10.164452 18.9258,8.500835 28.74479,7.537303 8.95794,-2.257778 17.58205,-8.744963 18.32221,-18.560761 13.19122,5.391368 9.87886,3.890615 23.3756,8.758311 -1.76098,48.254736 0.18524,67.287032 20.98165,69.169937 -2.78959,9.353264 -7.90802,34.234164 -9.35783,43.823954 -2.45521,12.65552 1.42011,18.49428 0.31602,31.26007 1.32771,9.80361 8.36225,21.82905 5.83233,32.18841 -2.91838,9.31802 3.50898,18.85905 0.87646,28.17792 -14.15386,15.93144 -49.11342,15.38688 -66.61594,13.55186 z"
       id="path8683"
       sodipodi:nodetypes="ccccscccccccccccccccccc"
       inkscape:label="base"
       transform="translate(-6.2216588,-4.5008044)" />
  </g>
  <g
     inkscape:groupmode="layer"
     inkscape:label="Image"
     id="g46184"
     transform="translate(-6.2216588,-4.5008044)"
     style="display:inline">
    <path
       style="display:inline;fill:#ff5555;fill-opacity:1;stroke:#000000;stroke-width:0.881003;stroke-miterlimit:4;stroke-dasharray:none;stroke-opacity:1"
       d="m 181.98535,109.28828 c 3.1095,-8.29434 15.76946,-8.27485 15.59276,-15.415659 -13.0916,-10.234267 -23.28519,-46.671837 -32.96729,-73.778677 -4.25199,-1.132679 -6.98316,-3.452653 -11.0256,-3.923101 0,0 11.34477,42.033938 1.93452,55.37788 -9.38781,13.312135 -38.98805,13.705477 -48.58567,0.23731 -8.981168,-12.603117 -3.68457,-43.206961 -4.42473,-53.022761 -2.574983,0.668174 -6.047408,1.210443 -9.308998,2.272333 -6.310298,25.895826 -2.43179,63.115116 -23.22821,64.998021 2.7896,9.353249 40.163338,19.148974 33.844568,29.831384 45.73048,-13.84822 55.12539,36.61661 78.16865,-6.57673 z"
       id="path16286"
       sodipodi:nodetypes="ccccssccccc"
       inkscape:label="back" />
    <path
       style="display:inline;fill:#ff8080;fill-opacity:1;stroke:none;stroke-width:0.881003;stroke-miterlimit:4;stroke-dasharray:none;stroke-opacity:1"
       d="m 128.89628,243.21259 c -19.48957,-1.93595 -24.40695,-1.38577 -42.522072,-4.83485 -8.185336,-0.88267 -14.213688,-2.17458 -12.025982,-12.23925 0.403127,-4.44372 0.146074,-12.14442 0.19201,-15.14461 0.315837,-4.20127 1.583474,-3.57266 1.872091,-6.67026 0.261679,-2.80847 -1.378804,-3.16806 -1.157121,-6.88231 3.059224,-9.8248 -0.287352,-21.60624 2.209944,-31.6321 1.382097,-10.60606 -0.610946,-21.35608 0.133558,-32.04325 -0.851387,-9.76588 0.425591,-21.40698 -3.326952,-29.95721 -3.109491,-8.294341 -4.410492,-12.312422 -4.233795,-19.453226 13.091601,-10.234267 13.627166,-36.42096 23.309269,-63.5278 4.251988,-1.132679 4.655553,-1.557462 8.69799,-2.02791 0,0 -16.277019,46.482538 -6.866772,59.82648 9.387812,13.312135 56.107252,14.804661 65.704872,1.336494 8.98117,-12.603117 -3.28347,-50.634515 -7.39533,-63.68066 2.57498,0.668174 7.59196,2.650334 10.85355,3.712224 6.3103,25.895826 12.7073,72.333124 33.50372,74.216029 -2.7896,9.353249 -7.90803,34.234169 -9.35784,43.823959 -2.45521,12.65551 1.4201,18.49427 0.31601,31.26006 1.32772,9.80361 8.36226,21.82906 5.83234,32.18841 -2.91838,9.31803 3.50898,18.85905 0.87647,28.17793 -14.15387,15.93143 -49.11344,15.38688 -66.61596,13.55185 z"
       id="path46567"
       sodipodi:nodetypes="ccccscccccccsscccccccc"
       inkscape:label="base" />
    <path
       id="path48259"
       clip-path="url(#clipPath17348)"
       style="display:inline;opacity:1;fill:#ff5555;stroke:none;stroke-width:0.32;stroke-opacity:1"
       transform="matrix(1.3717396,-0.1151882,0.1151882,1.3717396,31.002543,18.088241)"
       d="m 86.916016,20.349609 c -6.86226,4.918209 -16.223476,7.590904 -24.571514,5.319667 -2.214299,-1.167869 -11.517116,-6.156482 -6.314386,-0.586662 2.367381,2.048694 9.907759,2.645373 9.309799,4.219444 -21.021086,-4.680799 5.094769,4.031096 7.647209,1.462836 4.343464,-3.708248 10.950564,-5.286301 14.040218,-10.411379 l -0.111328,-0.0039 z m -72.525391,10.65625 c 1.760987,5.311948 5.350078,15.67356 5.714902,17.815837 -3.036442,-0.965533 -6.862154,-9.644473 -7.165671,-7.38926 2.611668,5.853019 8.918045,10.183612 10.927668,16.443612 1.836912,4.15836 0.846189,-6.846352 1.512132,-8.928951 0.222721,-3.761331 1.865538,-8.706783 -3.439039,-6.711413 -3.93758,-2.585303 -4.836347,-7.683492 -7.549992,-11.229825 z m 8.252015,27.512377 c -0.533469,2.802457 0.991937,7.347078 -2.379638,8.448472 1.500084,2.854883 9.11169,-0.790328 5.21341,4.641273 -4.547806,8.120646 8.599274,4.780245 12.731736,3.971156 2.944127,-0.136163 9.328369,-3.494806 2.867487,-4.256545 -4.755818,-2.236048 -11.148154,-2.580984 -13.708295,-7.693726 -2.197215,-2.128017 -2.795074,-8.87059 -3.757755,-9.45593 0.0075,2.324481 2.006812,6.802696 -0.117687,2.050914 -0.01218,-8.951047 -4.110442,-10.043409 -0.849258,2.294386 z m 98.55658,-15.256517 c -5.04986,2.33253 -7.58109,8.253221 -10.08004,12.409657 -1.84508,-0.798413 -3.41344,-10.82755 -3.30393,-3.594219 -0.49423,6.629633 -1.03043,13.940213 -5.26576,19.365574 -4.499221,3.004984 -13.038433,2.819893 -16.632868,3.458727 3.3438,6.016885 12.127,6.619685 12.709463,13.855397 2.602825,10.797851 3.034315,22.059965 6.084045,32.730665 6.30174,3.05811 11.91007,-3.19008 11.88554,-9.2789 1.85044,-14.820944 7.13145,-27.750192 5.2299,-42.244262 -2.48741,-3.515652 -4.41058,-11.826313 -10.06734,-9.050063 -1.72541,-2.308231 3.98228,-4.048876 3.4645,-7.481914 1.61337,-3.593832 3.73263,-6.942031 5.97649,-10.170662 z m -12.25781,37.074219 c -4.08073,6.958775 -10.604824,11.910142 -16.12891,17.634765 6.878359,-3.413991 12.37041,-9.240327 16.35828,-15.713192 0.29034,-0.574387 0.35546,-1.488872 -0.22937,-1.921573 z m -2.76563,11.835937 c -4.56196,5.0989 -7.312086,11.882225 -9.7216,18.298785 -1.291248,4.21299 -7.750571,11.63644 -7.659134,12.60496 4.249448,-4.72993 6.603103,-10.85529 10.430979,-15.93255 1.657645,-5.29717 6.128515,-9.647556 6.949755,-14.971195 z m -77.476561,4.65625 c 0.06479,6.441305 4.636925,11.601595 8.276657,16.527705 4.112828,4.79277 8.944497,8.96292 14.237091,12.40394 1.800785,-0.05 -6.545465,-6.6757 -8.414208,-8.95365 -5.856497,-5.69264 -11.401107,-12.10113 -13.990165,-19.964323 l -0.109375,-0.01367 z m 10.199219,5.138675 c 0.859975,2.45981 8.034043,3.44697 10.191379,3.84695 -3.012124,-2.0505 -6.847726,-2.49108 -10.191379,-3.84695 z m 11.658203,4.68164 v 0.0117 z m -25.904297,6.74414 c 2.099119,6.19611 8.36752,10.94502 11.813682,16.7524 1.389283,0.89731 -2.478344,-6.96942 -3.600368,-9.22572 -2.36636,-2.86973 -5.270589,-5.27322 -8.213314,-7.52668 z m 40.048904,8.29492 c -2.861856,-0.4048 -7.07761,2.33445 -1.594871,1.87192 2.18792,0.0904 12.53532,0.96048 6.135944,-1.49425 -1.493656,-0.29331 -3.01991,-0.4174 -4.541073,-0.37767 z m -23.576172,5.02734 c 4.62532,4.9808 12.28112,5.8086 18.514269,6.57534 -1.934602,-4.66262 -12.310609,-3.85024 -17.416774,-6.10188 z m -13.826172,4.15625 c 0.424284,4.78257 9.697971,6.24462 12.716439,10.70556 4.092428,3.25489 8.867175,8.66942 14.162468,8.18726 -9.360656,-5.1348 -15.379944,-15.13202 -25.574962,-18.80682 l -1.303945,-0.0858 z m 69.689453,0.53516 c -2.274733,0.005 -11.069856,0.73644 -9.644946,2.23897 1.949712,-0.0676 6.972625,1.35853 2.836353,3.05009 2.77422,-1.70293 8.738944,-3.68311 9.757428,-4.65584 -0.898793,-0.49347 -1.947193,-0.58259 -2.948835,-0.63322 z m -4.439453,9.30664 c 6.131077,1.26167 11.682226,-3.21132 13.067296,-8.98308 -4.85031,1.55682 -8.814299,6.05049 -13.067296,8.98308 z m -16.49414,-6.02344 c -3.275811,-0.49182 -6.248026,0.53628 -1.292361,2.12115 3.113029,2.48604 9.784557,4.55887 12.710147,3.69562 -2.605164,-4.29785 -9.832049,-1.86366 -11.417786,-5.81677 z m -2.105469,0.98828 c 0.682595,0.14347 -0.385509,0.60482 0,0 z m -50.015625,0.34766 c -2.494915,1.23945 6.10942,6.75772 5.918081,6.57508 -1.713145,-2.41387 -4.030901,-4.30981 -5.918081,-6.57508 z m 50.794922,1.25391 c -0.02467,0.0144 0.112534,0.12006 0,0 z m 24.478515,5.92968 c -7.477634,1.34904 -14.479882,4.7449 -21.51865,7.54211 -3.754563,1.45172 -5.133044,4.00859 0.06587,2.58039 8.058747,-2.53322 15.557537,-6.91371 23.737933,-9.30609 l -0.95274,-0.63506 z m -60.095703,6.76758 c 2.450284,4.83286 6.93928,10.36765 12.10868,13.34972 7.984354,1.83129 16.840468,-0.36876 25.17257,0.10144 7.533412,-0.78708 -3.477388,-1.34284 -5.927383,-1.45065 -8.779563,-4.68291 8.414165,-2.56077 6.292963,-4.96161 -7.531504,-2.84968 -14.577755,4.33054 -22.197345,3.75332 -7.001654,-0.50477 -9.971178,-7.73235 -15.449485,-10.79222 z m -18.421875,3.85742 c -2.635569,2.60672 13.857924,4.19447 5.298486,1.85549 -1.780331,-0.40398 -4.031198,-0.32521 -5.298486,-1.85549 z m 84.910151,2.08399 c -2.98584,1.37984 -10.704792,7.80421 -3.23477,4.82949 1.35692,-0.97531 3.72235,-3.13528 3.23477,-4.82949 z m -85.857416,0.57812 c -0.537142,3.9242 10.961082,3.78301 3.785052,1.18451 -1.199985,-0.45051 -2.668806,-0.65916 -3.785052,-1.18451 z"
       sodipodi:nodetypes="sccccccscccccccccccccccccccccccccccccccccccccscccccsccccccccccccccccccccccccccccccccccccccccccccccccccccccccccccccccc"
       inkscape:label="shadows"
       mask="none" />
    <path
       style="display:inline;fill:none;fill-opacity:1;stroke:#000000;stroke-width:0.881003;stroke-miterlimit:4;stroke-dasharray:none;stroke-opacity:1"
       d="m 128.89628,243.21259 c -19.48957,-1.93595 -24.40695,-1.38577 -42.522072,-4.83485 -8.185336,-0.88267 -14.213688,-2.17458 -12.025982,-12.23925 0.403127,-4.44372 0.146074,-12.14442 0.19201,-15.14461 0.315837,-4.20127 1.583474,-3.57266 1.872091,-6.67026 0.261679,-2.80847 -1.378804,-3.16806 -1.157121,-6.88231 3.059224,-9.8248 -0.287352,-21.60624 2.209944,-31.6321 1.382097,-10.60606 -0.610946,-21.35608 0.133558,-32.04325 -0.851387,-9.76588 0.425591,-21.40698 -3.326952,-29.95721 -3.109491,-8.294341 -4.410492,-12.312422 -4.233795,-19.453226 13.091601,-10.234267 13.627166,-36.42096 23.309269,-63.5278 4.251988,-1.132679 4.655553,-1.557462 8.69799,-2.02791 0,0 -16.277019,46.482538 -6.866772,59.82648 9.387812,13.312135 56.107252,14.804661 65.704872,1.336494 8.98117,-12.603117 -5.38445,-57.557528 -7.39533,-63.68066 2.57498,0.668174 7.59196,2.650334 10.85355,3.712224 6.3103,25.895826 12.7073,72.333124 33.50372,74.216029 -2.7896,9.353249 -7.90803,34.234169 -9.35784,43.823959 -2.45521,12.65551 1.4201,18.49427 0.31601,31.26006 1.32772,9.80361 8.36226,21.82906 5.83234,32.18841 -2.91838,9.31803 3.50898,18.85905 0.87647,28.17793 -14.15387,15.93143 -49.11344,15.38688 -66.61596,13.55185 z"
       id="path17336"
       sodipodi:nodetypes="ccccscccccccsscccccccc"
       inkscape:label="base" />
  </g>
</svg>
